<svg version="1.2" baseProfile="tiny-ps" xmlns="http://www.w3.org/2000/svg" viewBox="0 0 593 750" width="593" height="750">
	<title>OBJECTS</title>
	<defs>
		<clipPath clipPathUnits="userSpaceOnUse" id="cp1">
			<path d="M416.98 151.31C383.37 137.93 359.03 138.24 343.94 152.26C314.67 115.39 296.16 100.21 288.4 106.7C272.5 120 281.76 187.87 329.26 174.53C294.51 217.97 278.54 243.74 281.34 251.84C285.54 264 356.45 252.76 392.82 233.18C417.18 297.22 415.97 337.01 389.2 352.56C349.04 375.89 258.55 308.35 220.14 339.85L205.87 355.04C180.27 309.22 164.73 287.54 159.23 290.02C150.97 293.74 127.16 338.25 159.23 353.29C147.32 347.02 139.81 347.85 136.69 355.77C132 367.66 148.05 377.03 159.23 372.8C147.87 374.28 143.96 377.75 147.49 383.2C152.78 391.37 182.94 389.47 193.72 375.4C180.89 399.85 174.1 420.14 173.35 436.26C172.22 460.43 188.12 510.93 181.52 526.82C174.91 542.72 137.89 576.38 110.13 591.23C82.37 606.08 63.9 676.35 63.28 711.57L74.11 710.84C79.05 660.44 95.99 626.36 124.94 608.59C168.36 581.94 215.22 576.34 237.84 559.26C225.26 614.39 225.26 670.36 237.84 727.17L247.68 727.26C243.82 646.2 256.6 586.88 286.02 549.29L308.08 528.18L373.93 517.99C360.59 534.49 352.84 546.95 350.69 555.37C348.54 563.8 358.45 622.37 380.4 731.1L391.69 730.15C381.73 655.27 379.29 608.9 384.37 591.05C389.45 573.2 403.15 550.92 425.46 524.21C427.26 563.53 430.86 590.51 436.27 605.16C441.68 619.81 454.33 659.43 474.21 724.01L484.39 723.91C468.01 642.73 461.21 594.57 464 579.46C466.78 564.34 480.95 530.27 506.49 477.25C532.46 441.27 538.29 395.34 523.98 339.47C509.66 283.59 478.88 228.26 431.63 173.48C466.94 178.53 483.4 160.53 481.01 119.48C480.01 102.24 438.61 127.55 416.98 151.31Z" />
		</clipPath>
		<clipPath clipPathUnits="userSpaceOnUse" id="cp2">
			<path d="M377.27 179.09C385.07 179.09 391.39 185.41 391.39 193.2C391.39 201 385.07 207.32 377.27 207.32C369.48 207.32 363.16 201 363.16 193.2C363.16 185.41 369.48 179.09 377.27 179.09Z" />
		</clipPath>
	</defs>
	<style>
		tspan { white-space:pre }
		.shp0 { fill: #d5a62d } 
		.shp1 { fill: #df762a } 
		.shp2 { fill: #884516 } 
		.shp3 { fill: #402112 } 
		.shp4 { fill: #fae1b5 } 
		.shp5 { fill: #df762b } 
		.shp6 { fill: #fbf8f0 } 
		.shp7 { fill: #422215 } 
		.shp8 { fill: #402113 } 
	</style>
	<g id="BACKGROUND">
		<g id="&lt;Group&gt;">
			<path id="&lt;Path&gt;" class="shp0" d="M296.45 687.07C459.76 687.07 592.15 701.14 592.15 718.49C592.15 735.85 459.76 749.92 296.45 749.92C133.15 749.92 0.76 735.85 0.76 718.49C0.76 701.14 133.15 687.07 296.45 687.07Z" />
		</g>
	</g>
	<g id="OBJECTS">
		<g id="&lt;Group&gt;">
			<g id="&lt;Group&gt;">
				<path id="&lt;Path&gt;" class="shp1" d="M416.98 151.31C383.37 137.93 359.03 138.24 343.94 152.26C314.67 115.39 296.16 100.21 288.4 106.7C272.5 120 281.76 187.87 329.26 174.53C294.51 217.97 278.54 243.74 281.34 251.84C285.54 264 356.45 252.76 392.82 233.18C417.18 297.22 415.97 337.01 389.2 352.56C349.04 375.89 258.55 308.35 220.14 339.85L205.87 355.04C180.27 309.22 164.73 287.54 159.23 290.02C150.97 293.74 127.16 338.25 159.23 353.29C147.32 347.02 139.81 347.85 136.69 355.77C132 367.66 148.05 377.03 159.23 372.8C147.87 374.28 143.96 377.75 147.49 383.2C152.78 391.37 182.94 389.47 193.72 375.4C180.89 399.85 174.1 420.14 173.35 436.26C172.22 460.43 188.12 510.93 181.52 526.82C174.91 542.72 137.89 576.38 110.13 591.23C82.37 606.08 63.9 676.35 63.28 711.57L74.11 710.84C79.05 660.44 95.99 626.36 124.94 608.59C168.36 581.94 215.22 576.34 237.84 559.26C225.26 614.39 225.26 670.36 237.84 727.17L247.68 727.26C243.82 646.2 256.6 586.88 286.02 549.29L308.08 528.18L373.93 517.99C360.59 534.49 352.84 546.95 350.69 555.37C348.54 563.8 358.45 622.37 380.4 731.1L391.69 730.15C381.73 655.27 379.29 608.9 384.37 591.05C389.45 573.2 403.15 550.92 425.46 524.21C427.26 563.53 430.86 590.51 436.27 605.16C441.68 619.81 454.33 659.43 474.21 724.01L484.39 723.91C468.01 642.73 461.21 594.57 464 579.46C466.78 564.34 480.95 530.27 506.49 477.25C532.46 441.27 538.29 395.34 523.98 339.47C509.66 283.59 478.88 228.26 431.63 173.48C466.94 178.53 483.4 160.53 481.01 119.48C480.01 102.24 438.61 127.55 416.98 151.31Z" />
				<g id="&lt;Clip Group&gt;" clip-path="url(#cp1)">
					<g id="&lt;Group&gt;">
						<path id="&lt;Path&gt;" class="shp2" d="M218.78 582.43L237.84 559.26C257.68 542.16 269.91 529.85 274.55 522.31L312.66 505.02L322.53 573.22L264.96 743.49L215.27 731.1L218.78 582.43Z" />
						<path id="&lt;Path&gt;" class="shp2" d="M416.86 558.83L425.93 522.31L530.43 460.83C517.98 643.74 510.53 736.24 508.09 738.34C504.43 741.49 450.78 737.33 445.54 737.5C442.05 737.61 432.49 678.05 416.86 558.83Z" />
						<path id="&lt;Compound Path&gt;" fill-rule="evenodd" class="shp3" d="M234.97 704.06C234.77 702.41 234.24 700.16 234.08 698.6C233.86 696.51 234.32 694.93 234.78 694.2C235.55 692.99 236.59 692.33 237.86 692.12C238.75 691.98 240.09 691.97 241.64 693.12C242.23 693.57 243.13 694.53 243.54 696.19C243.63 696.52 243.69 696.92 243.75 697.37C245.03 696.5 246.23 696.5 247.34 697.53C247.61 697.78 248.16 698.3 248.36 699.31C248.63 700.65 248.59 705.96 248.86 708.1C249.59 713.91 250.1 720.93 252.41 726.63C252.59 727.06 253.02 727.45 252.97 727.91C252.84 729.13 252.74 728.14 252.03 729.12C252.14 729.32 252.07 729.57 251.88 729.68C251.68 729.79 251.43 729.72 251.32 729.52C250.09 729.62 250.85 730.19 249.77 729.59C249.18 729.27 248.77 728.75 248.48 728.14C247.99 729.1 247.25 729.59 246.79 729.84C245.98 730.29 245.08 730.47 244.11 730.25L244.05 730.4C243.42 731.86 242.4 732.61 241.27 732.94C241.33 733.56 241.37 734.05 241.35 734.36C241.1 739.35 236.97 739.14 235.31 738.32C234.9 738.12 233.76 737.62 232.99 735.83C231.88 733.27 231.1 730.44 230.61 727.49C229.98 723.71 229.76 719.77 229.37 716.18C228.29 711.47 227.64 706.53 227.05 702.4C226.92 701.71 227.36 701.04 228.05 700.91C228.74 700.78 229.41 701.22 229.54 701.91C230.12 704.22 230.74 706.8 231.46 709.43L231.45 708.68C231.49 705.76 233.25 704.84 233.49 704.69C233.98 704.37 234.47 704.17 234.97 704.06ZM233.28 732.3C232.21 733.18 231.58 734.06 233 734.08C233.44 734.09 233.46 733.35 233.28 732.3Z" />
						<path id="&lt;Path&gt;" class="shp3" d="M471.63 697.78C470.85 693.52 470.27 689.37 470.38 685.57C470.38 684.58 471.18 683.77 472.17 683.76C473.16 683.76 473.97 684.56 473.97 685.55C474.13 689.61 475.12 694.02 476.29 698.52C477.5 698.28 478.63 698.44 478.75 698.52C478.87 698.62 479.94 699.05 480.35 700.54L480.5 701.19C480.5 701.15 480.52 701.08 480.48 701.01C481.35 703.38 482.32 705.69 483.1 708.1C484.26 711.66 485.15 715.3 486.25 718.85L488.14 725.4C488.35 726.17 489.06 728.01 489.15 728.51L489.17 728.62L489.6 729.71C489.71 729.99 489.96 730.25 489.94 730.56C489.86 731.91 489.42 731.44 488.78 732.63C488.87 732.84 488.79 733.08 488.58 733.18C488.38 733.27 488.14 733.19 488.04 732.98L487.84 732.95C486.87 734.03 485.55 734.41 483.9 734.11C483.87 738.3 479.16 738.45 478.04 738.09C477.77 738 476.82 737.79 475.93 736.65C475.33 736.53 474.58 736.22 473.87 735.42C473.77 735.31 473.53 735.07 473.28 734.59C473.25 734.53 473.18 734.41 473.09 734.19L465.03 714.88L462.46 708.25C462.24 707.63 461.61 706.14 461.51 705.73C461.08 703.93 461.51 702.75 462.26 702.02C461.34 698.31 464.3 696.97 464.54 696.86C464.87 696.7 468.36 695.64 470.12 698.63C470.6 698.22 471.1 697.94 471.63 697.78Z" />
						<path id="&lt;Compound Path&gt;" fill-rule="evenodd" class="shp2" d="M64.7 693.2C64.18 692.6 63.89 691.82 63.92 690.97C64 689.2 65.5 687.84 67.26 687.92C71.9 687.93 76.51 687.33 81.15 687.45C83.21 687.5 85.23 687.82 87.27 688.08C89.29 688.38 90 689.28 90.11 689.49C90.78 690.63 91.09 691.71 90.45 692.78C90.22 693.17 89.98 693.78 89.28 694.15C89.09 694.25 88.66 694.56 87.91 694.66C87.02 694.78 83.77 695.12 82.45 695.28C81.83 695.37 80.86 695.41 79.72 695.46C80.42 695.92 81.1 696.76 81.03 698.32L81.01 698.64C81.41 698.95 81.12 700.31 80.73 701.71C80.67 702.23 80.6 702.75 80.52 703.26C80.26 705.01 79.91 706.75 79.54 708.49C79.45 710.7 79.23 712.91 79.12 714.87C79.04 716.27 78.86 719.75 78.78 720.72C78.69 721.63 78.37 722.12 78.31 722.21C77.54 723.39 76.63 723.64 75.8 723.49L75.8 723.45L75.79 723.48L75.8 723.49C75.81 723.54 75.8 723.58 75.77 723.62L75.64 724.54C75.25 726.52 74.1 727.09 73.86 727.24C72.9 727.85 71.97 728.04 71.08 727.72C70.89 728.01 70.67 728.24 70.43 728.45C66.32 755.4 61.11 744.8 63 722.68C62.66 721.96 62.34 721.72 62.18 720.91C62.13 720.67 62.17 720.44 62.19 720.21C62.46 717.14 62.91 714.1 63.12 711.03L63.5 704.16C63.54 703.48 63.52 701.82 63.57 701.37C63.66 700.63 63.89 700.09 64.19 699.7L64.44 696.79C64.51 695.97 64.61 694.15 64.7 693.2ZM75.1 723.26C75.17 723.56 75.3 723.73 75.52 723.73C75.66 723.72 75.74 723.68 75.77 723.62L75.79 723.48C75.56 723.44 75.32 723.36 75.1 723.26ZM76.48 695.64C76.05 695.66 75.63 695.7 75.2 695.73L75.66 696.03L75.92 696.24L76.05 696.06C76.12 695.98 76.2 695.9 76.27 695.82L76.48 695.64Z" />
						<path id="&lt;Path&gt;" class="shp2" d="M384.28 713.26C388.32 711.17 392.6 709.44 397.01 708.1C398.52 707.64 400.04 707.2 401.58 706.89C405.22 706.15 408.85 705.85 412.46 705.51C413.58 705.27 414.68 705.98 414.92 707.1C415.16 708.22 414.44 709.32 413.33 709.56C411.01 710.34 408.74 711.23 406.44 712.12C407.47 712.87 408.06 713.9 408.37 715.09C408.58 715.9 408.64 717.02 408.04 718.41C408.49 718.44 408.86 718.5 409.13 718.57C411.07 719.11 412 720.41 412.44 721.82C412.75 722.78 412.97 724.49 411.36 726.58C410.2 728.08 408.02 729.53 405.33 730.71C402.98 731.74 400.16 732.62 397.74 733.36C396.64 734.89 395.15 735.68 393.34 735.84C393.45 736.38 393.46 736.83 393.41 737.14C393.15 738.75 392.52 739.92 391.33 740.54C390.99 740.72 390.54 740.97 389.99 741.12C390.48 744.02 389.96 745.51 388.92 745.9C387.73 748.04 385.09 747.12 381.34 739.8C380.99 739.68 380.62 739.51 380.22 739.28C378.83 738.43 377.42 736.59 376.41 734.14C375.89 732.9 375.43 731.47 375.04 730.08C374.41 729.6 373.84 729.16 373.44 728.79C372.57 727.98 372.26 727.13 372.03 726.48C371.64 725.22 371.92 723.73 372.75 722.19C372.43 721.21 372.13 720.28 372.05 719.88C371.02 715.06 376.07 714.61 377.15 714.9L377.18 714.91L377.38 714.83C377.48 714.79 377.71 714.68 378.11 714.59C378.18 714.57 378.35 714.53 378.64 714.47L378.7 714.46C381.17 713.9 383.03 713.5 384.28 713.26Z" />
						<path id="&lt;Path&gt;" class="shp4" d="M264.96 265.25C283.53 260.75 304.91 247.4 329.12 225.19C342.43 212.99 375.49 177.96 383.7 178.35C431.9 180.64 476.42 220.55 503.1 263.02C529.77 305.5 597.01 475.29 428.14 522.31C463.01 494.78 475.74 460.11 466.33 418.32C477.87 336.21 453.64 274.94 393.62 234.51C392.1 233.49 355.12 269.72 264.96 265.25Z" />
						<path id="&lt;Path&gt;" class="shp4" d="M371.79 522.31C378.27 505.84 382.09 494.56 383.27 488.45C384.16 483.83 383.86 476.79 382.38 467.32L296.85 466.63C296.15 490.24 288.71 508.8 274.55 522.31L316.78 530.68L371.79 522.31Z" />
						<path id="&lt;Path&gt;" class="shp4" d="M147.83 296.42C148.55 295.78 147.56 299.74 147.91 301.5C148.83 306.09 149.86 310.56 151.46 315.03C155.01 324.99 161.54 334.45 168.84 341.75C170.29 343.2 171.23 346.32 173.03 347.23C174.63 348.03 171.03 346.29 169.81 346.9C167 348.31 164.14 347.42 161.44 350.12C160.59 350.97 158.51 353.78 159.5 355.27C161.29 357.95 165.45 359.46 168.52 359.46C169.6 359.46 171.21 359.35 173.35 359.14C172.07 359.35 171.21 359.67 170.77 360.11C169.45 361.43 167.4 362.91 166.27 364.61C164.3 367.56 166.52 370.28 168.84 372.02C172.68 374.9 183.28 376.55 187.84 374.27C188.36 374.01 192.59 370.33 192.99 370.73C194.75 372.49 189.78 380.05 189.13 381.36C188.02 383.57 185.89 385.51 183.98 387.15C180.68 389.98 178.03 392.38 173.99 394.24C168.95 396.56 163.32 397.12 157.9 397.46C121.86 399.71 117.01 353 125.69 326.94C128.64 318.1 130.42 312.66 137.93 306.65L147.83 296.42Z" />
						<path id="&lt;Path&gt;" class="shp2" d="M291.6 100.09C290.57 100.18 290.71 99.77 289.82 100.31C288.59 101.06 288.27 102.75 287.6 104.09C285.7 107.9 284.51 112.21 283.72 116.12C283.33 118.6 283.17 121.12 283.17 123.64C283.17 126.09 283.35 128.55 283.59 130.98C284.75 138.58 287.8 144.71 292.54 149.23C297.12 153.6 303.17 156.5 310.27 157.92C314.99 158.84 319.67 158.67 324.07 159.62C326.82 160.2 329.44 161.16 331.87 163.42C332.03 163.61 332.31 163.63 332.49 163.47C332.68 163.31 332.7 163.03 332.54 162.85C330.4 159.81 327.8 158.07 324.88 156.93C320.69 155.29 315.95 155.08 311.36 153.62C305.51 151.79 300.7 148.82 297.13 144.8C293.72 140.96 291.58 136.08 291.03 130.07C290.63 127.44 290.33 124.76 290.22 122.09C290.15 120.36 290.13 118.62 290.27 116.9C290.42 112.31 291.32 107.12 292.91 102.67C293 102.42 293.18 102.17 293.15 101.91C293.05 100.84 292.82 101.42 292.31 100.5C292.42 100.3 292.36 100.05 292.16 99.94C291.96 99.82 291.72 99.89 291.6 100.09Z" />
						<path id="&lt;Path&gt;" class="shp2" d="M480.99 111.71L481.03 111.74C481.15 111.82 481.11 112.01 481.16 112.14C481.63 113.56 482.02 114.87 482.25 116.27C482.85 120.01 482.34 123.65 481.38 127.57C479.43 133.65 476.89 139.23 473.04 143.58C469.01 148.13 463.68 151.34 456.99 152.95C450.09 154.42 441.97 154.06 434.86 155.9C430.39 157.06 426.36 159.05 423.44 163.29C423.22 163.67 422.73 163.8 422.34 163.58C421.96 163.36 421.83 162.87 422.05 162.49C423.9 158.51 426.69 155.82 429.99 153.84C437.29 149.44 447.21 148.99 455.05 146.17C460.03 144.51 463.63 141.53 466.65 138.01C469.8 134.35 472.34 130.02 474.23 125.07C475.42 122.45 476.07 119.93 476.49 117.28C476.68 116.07 476.95 114.91 477.05 113.64C477.09 113.22 476.87 112.71 477.15 112.38L477.27 112.23L477.46 112.23C477.85 112.19 478.32 112.17 478.68 112.02C478.78 111.98 478.73 111.6 479.03 111.56C479.29 111.53 479.44 111.91 479.49 111.91C479.76 111.9 480.04 111.84 480.31 111.81L480.99 111.71Z" />
						<path id="&lt;Path&gt;" class="shp2" d="M291.55 104.76C289.49 105.89 290.02 104.53 288.58 106.35C288.34 106.65 288.36 107.04 288.29 107.41C288.02 108.88 287.91 110.33 287.85 111.77C287.74 114.09 287.77 116.38 288.13 118.61C288.37 120.1 288.72 121.53 289.28 122.94C290.54 126.09 292.23 128.81 294.85 131.69C295.09 132.14 295.66 132.31 296.11 132.07C296.57 131.83 296.74 131.27 296.49 130.81C295.38 126.55 295.88 123.03 295.96 119.23C296.01 116.96 295.94 114.7 295.89 112.37C295.86 110.77 295.82 109.16 295.58 107.52C295.52 107.14 295.56 106.73 295.32 106.42C293.92 104.56 294.44 105.9 292.37 104.76C292.37 104.53 292.19 104.35 291.96 104.35C291.74 104.35 291.55 104.53 291.55 104.76Z" />
						<path id="&lt;Path&gt;" class="shp2" d="M291.76 104.15L292.01 104.16C292.23 104.16 292.89 104.15 293.08 104.12C293.16 104.1 293.2 103.7 293.48 103.7C293.8 103.69 293.77 104.07 293.9 104.1C294.18 104.18 294.76 104.26 295.03 104.04L295.05 104.01L295.36 104.31C295.88 104.79 295.76 105.65 295.95 106.37C296.31 107.7 296.79 109.02 297.2 110.44C297.59 111.79 297.97 113.17 298.31 114.58C299.17 118.12 300.16 121.59 300.92 124.84C301.15 125.83 301.16 126.69 301.33 127.62C301.49 127.93 301.38 128.31 301.06 128.48C300.75 128.65 300.37 128.53 300.2 128.22C299.44 127.47 298.69 126.83 297.99 125.91C295.59 122.78 293.52 118.86 292.26 114.79C291.68 112.92 291.43 110.98 291.34 109.13C291.27 107.76 291.33 106.48 291.5 105.22C291.55 104.88 291.41 104.47 291.66 104.25L291.76 104.15Z" />
						<path id="&lt;Path&gt;" class="shp2" d="M298.34 110.9C298.1 111.32 297.93 111.33 297.87 111.82C297.73 112.8 298.31 113.77 298.71 114.72C299.15 115.74 299.66 116.77 300.38 117.6C300.94 118.22 301.55 118.56 302.18 119.05C302.32 119.27 302.61 119.33 302.84 119.19C303.05 119.05 303.12 118.76 302.98 118.54C302.71 117.59 302.65 116.67 302.27 115.7C301.78 114.43 301.07 113.24 300.49 112.04C300.32 111.68 300.21 111.27 299.92 111C299.58 110.69 299.54 110.87 299.13 110.69C299.07 110.48 298.85 110.35 298.63 110.4C298.41 110.46 298.29 110.69 298.34 110.9Z" />
						<path id="&lt;Path&gt;" class="shp2" d="M478.39 111.56C477.13 111.85 477.82 111.03 476.81 111.86C476.17 112.38 476.1 113.34 475.72 114.11C474.92 115.74 473.94 117.34 472.92 119C471.94 120.58 470.86 122.16 469.81 123.77C467.85 126.75 465.84 129.67 463.75 132.33C462.14 134.38 460.74 136.29 459.18 137.9C458.97 138.04 458.92 138.33 459.07 138.53C459.21 138.74 459.5 138.79 459.7 138.64C462.56 137.27 465.62 135.54 468.56 133.12C471.22 130.93 473.72 128.32 475.72 125.42C477.21 123.25 478.35 120.89 479.18 118.55C479.79 116.84 480.19 115.15 480.4 113.47C480.43 113.23 480.58 112.97 480.48 112.74C479.95 111.53 480.25 112.51 479.19 111.73C479.24 111.51 479.1 111.29 478.88 111.25C478.66 111.2 478.44 111.34 478.39 111.56Z" />
						<path id="&lt;Path&gt;" class="shp2" d="M472.87 115.27C471.62 115 472.36 114.65 471.09 114.89C470.96 114.91 470.87 115.02 470.77 115.1C469.45 116.1 468.22 117.18 467.02 118.37C466.18 119.19 465.38 120.05 464.64 120.95C463.89 121.86 463.25 122.82 462.56 123.76C461.71 124.92 460.88 125.98 460.07 127.15C459.45 128.05 459.11 128.84 458.5 129.73C458.29 129.87 458.23 130.15 458.37 130.36C458.51 130.58 458.8 130.63 459.01 130.49C460.18 130.22 461.15 130.03 462.26 129.55C464.6 128.52 466.65 127.04 468.55 125.27C469.94 123.98 471.14 122.47 472.21 120.92C472.94 119.86 473.96 118.92 474.1 117.67C474.23 116.43 473.87 116.98 473.49 115.81C473.64 115.64 473.62 115.38 473.45 115.23C473.28 115.08 473.02 115.1 472.87 115.27Z" />
						<path id="&lt;Path&gt;" class="shp2" d="M456.26 130.02L456.27 130.23C456.28 130.53 456.25 130.66 456.06 130.89C454.8 132.44 452.66 132.96 451.02 134.09C450.37 134.59 449.44 134.47 448.94 133.82C448.44 133.17 448.56 132.24 449.21 131.74C450.8 130.39 452.11 128.4 454.13 127.88C454.43 127.8 454.57 127.8 454.84 127.95L455.03 128.05C455.05 128.15 455.16 128.34 455.45 128.67C455.64 128.56 455.9 128.61 456.01 128.8C456.13 129 456.08 129.25 455.88 129.37C456.07 129.78 456.18 129.97 456.26 130.02Z" />
						<path id="&lt;Path&gt;" class="shp2" d="M278.51 417.66C278.79 418.21 279 418.77 279.3 419.31C281.91 424.04 284.05 428.94 285.24 434.3C287.23 443.21 287.49 452.83 287.16 461.54C287.15 461.67 287.25 461.78 287.38 461.78C287.51 461.79 287.61 461.7 287.63 461.57C288.41 452.77 288.96 442.96 287.07 433.9C285.9 428.32 284.12 422.78 280.52 418.48C280.11 417.98 279.63 417.59 279.16 417.16C279.02 416.98 278.76 416.95 278.59 417.08C278.41 417.22 278.37 417.48 278.51 417.66Z" />
						<path id="&lt;Path&gt;" class="shp2" d="M278.75 435.69C278.64 436.03 278.48 436.11 278.49 436.47C278.49 436.67 278.63 436.86 278.69 437.05C279.88 440.54 280.42 444.23 280.74 447.97C281 451.07 281.01 454.19 281.03 457.3C281.04 460.53 281.12 463.7 280.97 466.79C280.94 466.99 281.08 467.17 281.27 467.2C281.47 467.23 281.65 467.09 281.68 466.89C282.2 464.84 282.75 462.78 283.08 460.61C283.57 457.45 283.79 454.19 283.66 450.95C283.47 446.02 282.42 441.16 280.62 436.68C280.5 436.37 280.47 436.01 280.25 435.77C280 435.5 279.83 435.54 279.5 435.37C279.42 435.17 279.18 435.07 278.97 435.16C278.76 435.24 278.66 435.48 278.75 435.69Z" />
						<path id="&lt;Path&gt;" class="shp2" d="M282.88 470.12C282.71 470.27 282.64 470.22 282.54 470.42C282.44 470.64 282.52 470.9 282.51 471.14C282.35 474.18 281.77 477.22 281.42 480.27C281.25 481.76 281.23 483.22 281.1 484.7C281.07 484.89 281.19 485.08 281.38 485.12C281.58 485.16 281.76 485.03 281.8 484.84C282.14 483.89 282.51 482.99 282.77 482.01C283.15 480.57 283.35 479.08 283.55 477.6C283.86 475.37 284.46 473.07 284.02 470.88C283.96 470.59 283.82 470.4 283.7 470.13C283.7 469.91 283.52 469.72 283.29 469.72C283.07 469.71 282.88 469.89 282.88 470.12Z" />
						<path id="&lt;Path&gt;" class="shp2" d="M273.7 462.45C273.15 465.42 272.5 468.31 272.01 471.26C271.82 472.43 271.63 473.6 271.53 474.79C271.46 475.6 271.51 476.38 271.48 477.21C271.43 477.42 271.56 477.63 271.78 477.68C271.99 477.72 272.2 477.59 272.24 477.38C272.57 476.61 272.92 475.9 273.17 475.11C273.54 473.95 273.76 472.76 273.95 471.57C274.42 468.61 274.54 465.62 274.81 462.61C274.85 462.3 274.64 462.02 274.33 461.98C274.02 461.93 273.74 462.15 273.7 462.45Z" />
						<path id="&lt;Path&gt;" class="shp2" d="M266.01 463.75C265.69 464.21 265.34 464.57 265.1 465.07C264.58 466.15 264.42 467.35 264.09 468.52C263.96 468.96 264.21 469.41 264.65 469.54C265.08 469.67 265.54 469.42 265.66 468.98C266.02 467.83 266.54 466.76 266.74 465.6C266.83 465.06 266.76 464.57 266.78 464.01C266.85 463.8 266.74 463.57 266.53 463.5C266.31 463.42 266.08 463.54 266.01 463.75Z" />
						<path id="&lt;Path&gt;" class="shp2" d="M390.58 432.68C390.47 433.92 390.23 435.06 390.19 436.29C389.95 442.76 389.86 449.04 389.5 455.41C389.26 459.68 389.29 463.96 389.17 468.32C389.14 468.75 389.45 469.13 389.88 469.17C390.3 469.21 390.68 468.89 390.73 468.47C391.34 464.88 392.12 461.38 392.56 457.82C392.85 455.42 392.95 453.01 393.03 450.61C393.2 445.79 393.48 440.91 392.51 436.1C392.27 434.87 391.8 433.77 391.39 432.57C391.36 432.35 391.16 432.19 390.94 432.22C390.71 432.25 390.55 432.45 390.58 432.68Z" />
						<path id="&lt;Path&gt;" class="shp2" d="M399.33 443.09C399.2 446.75 398.6 450.26 398.05 453.77C397.68 456.14 397.29 458.5 396.98 460.89C396.65 463.45 396.49 466.03 396.25 468.65C396.22 468.87 396.36 469.08 396.58 469.12C396.81 469.16 397.02 469.01 397.06 468.79C397.66 466.68 398.34 464.64 398.86 462.55C399.39 460.43 399.84 458.3 400.13 456.16C400.73 451.86 400.77 447.53 400.44 443.07C400.44 442.76 400.18 442.52 399.88 442.52C399.57 442.53 399.32 442.79 399.33 443.09Z" />
						<path id="&lt;Path&gt;" class="shp2" d="M403.4 470.49C402.76 472.38 401.97 474.2 401.45 476.12C400.93 478.04 400.7 480.01 400.3 481.97C400.24 482.17 400.36 482.38 400.56 482.44C400.76 482.5 400.97 482.38 401.04 482.18C401.74 480.3 402.57 478.49 403.1 476.57C403.63 474.64 403.84 472.66 404.19 470.69C404.25 470.47 404.12 470.25 403.9 470.19C403.68 470.14 403.46 470.27 403.4 470.49Z" />
						<path id="&lt;Path&gt;" class="shp2" d="M394.36 480.17C394.01 480.52 393.66 480.79 393.37 481.19C392.97 481.75 392.73 482.4 392.44 483.02C391.32 485.4 390.41 487.91 389.46 490.32C389.27 490.83 389.53 491.4 390.04 491.59C390.54 491.78 391.11 491.52 391.3 491.01C392.39 487.91 393.92 484.87 394.9 481.71C395.02 481.32 395.01 480.96 395.08 480.57C395.19 480.37 395.12 480.12 394.92 480.01C394.72 479.9 394.47 479.98 394.36 480.17Z" />
						<path id="&lt;Path&gt;" class="shp2" d="M464.82 409.73C465.88 409.29 466.33 409.25 467.17 408.5C467.31 408.37 467.39 408.19 467.48 408.03C468.14 406.83 468.47 405.47 468.77 404.12C469.84 399.3 469.37 394.02 469.43 389.26C469.33 381.9 468.66 374.68 467.45 367.56C465.65 356.96 462.79 346.6 460.07 336.05C459.97 335.6 459.53 335.31 459.08 335.41C458.63 335.51 458.34 335.95 458.44 336.4C460.33 347.04 462.16 357.54 463.36 368.13C464.15 375.1 464.71 382.1 464.56 389.24C464.53 391.63 464.54 394.15 464.56 396.67C464.58 400.16 463.5 403.48 463.42 406.88C463.39 407.97 463.91 408.25 464.1 409.33C464 409.53 464.07 409.77 464.26 409.89C464.46 410 464.71 409.92 464.82 409.73Z" />
						<path id="&lt;Path&gt;" class="shp2" d="M154.23 569.19C155.39 569.18 156.09 569.36 157.23 569.08C157.6 568.99 157.92 568.78 158.26 568.59C162.51 566.13 166.19 562.6 169.6 558.9C173.37 554.81 176.72 550.26 179.36 545.39C181.15 542.09 182.47 538.66 183.68 535.22C183.76 535.06 183.69 534.86 183.53 534.78C183.36 534.7 183.17 534.77 183.09 534.94C181.49 537.47 179.68 539.84 177.87 542.32C175.26 545.89 172.52 549.41 169.53 552.73C165.56 557.13 161.11 561.01 156.53 564.56C156.06 564.92 155.54 565.22 155.18 565.69C154.43 566.64 154.37 567.42 153.8 568.49C153.61 568.6 153.55 568.86 153.67 569.05C153.78 569.24 154.03 569.3 154.23 569.19Z" />
						<path id="&lt;Path&gt;" class="shp2" d="M174.35 562.27C175.23 562.19 175.72 562.38 176.55 562.02C178.77 561.04 180.22 558.7 181.85 556.78C183.66 554.66 185.4 552.41 186.68 549.97C187.57 548.27 188.15 546.52 188.72 544.77C188.87 544.48 188.76 544.12 188.47 543.97C188.18 543.83 187.83 543.94 187.68 544.23C186.52 545.85 185.16 547.3 183.87 548.93C181.02 552.54 177.82 556 174.69 559.23C174.53 559.39 174.37 559.55 174.27 559.75C173.92 560.47 174.03 560.86 173.83 561.63C173.66 561.78 173.63 562.03 173.77 562.21C173.92 562.39 174.17 562.41 174.35 562.27Z" />
						<path id="&lt;Path&gt;" class="shp2" d="M195.87 519.14C195.49 519.32 195.37 519.21 195.08 519.5C194.94 519.64 194.92 519.86 194.85 520.05C193.51 523.38 192.13 526.69 190.78 530.01C190.38 530.97 189.89 531.91 189.65 532.92C189.48 533.65 189.51 534.33 189.46 535.08C189.28 535.57 189.53 536.1 190.01 536.28C190.5 536.46 191.03 536.21 191.21 535.73C191.68 535.02 192.21 534.45 192.61 533.71C194.14 530.89 195.1 527.8 196.28 524.81C196.79 523.52 197.49 522.26 197.72 520.88C197.78 520.53 197.88 520.19 197.72 519.88C197.53 519.51 197.76 519.91 197.43 519.67C197.58 519.24 197.34 518.77 196.91 518.62C196.48 518.48 196.01 518.71 195.87 519.14Z" />
						<path id="&lt;Path&gt;" class="shp2" d="M204.61 510.69C204.43 511 204.23 511.22 204.09 511.54C203.81 512.21 203.71 512.95 203.57 513.66C203.09 516.03 202.8 518.44 202.41 520.83C202.34 521.16 202.55 521.48 202.88 521.54C203.21 521.61 203.53 521.4 203.6 521.07C204.16 518.71 204.82 516.38 205.27 513.99C205.41 513.28 205.59 512.56 205.58 511.83C205.58 511.48 205.47 511.2 205.41 510.85C205.46 510.63 205.31 510.41 205.09 510.37C204.87 510.33 204.65 510.47 204.61 510.69Z" />
						<path id="&lt;Path&gt;" class="shp2" d="M160.45 569.22C160.14 569.04 160.39 568.98 160.03 568.98C159.74 568.98 159.52 569.26 159.27 569.42C156.55 571.15 154.03 573.17 151.27 574.85C150.92 575.06 150.8 575.51 151 575.86C151.21 576.2 151.66 576.32 152.01 576.12C154.55 574.71 157.04 573.21 159.41 571.55C159.94 571.18 160.7 570.97 160.96 570.38C161.1 570.05 160.94 570.26 160.9 569.9C161.09 569.78 161.14 569.52 161.01 569.34C160.89 569.15 160.64 569.09 160.45 569.22Z" />
						<path id="&lt;Path&gt;" class="shp2" d="M401.75 245.77C401.08 246.45 401.3 245.62 400.99 246.52C400.81 247.04 401.02 247.56 401.13 248.1C401.85 251.51 402.64 254.89 403.5 258.28C404.11 260.68 405.04 262.9 405.94 265.18C406.05 265.68 406.55 265.99 407.05 265.87C407.55 265.76 407.86 265.26 407.74 264.76C407.62 262.88 407.74 261.05 407.56 259.16C407.3 256.33 406.66 253.53 405.93 250.79C405.49 249.18 405.27 247.42 404.28 246.06C404.07 245.76 403.9 245.53 403.55 245.41C402.59 245.09 403.51 245.39 402.5 245.45C402.42 245.24 402.17 245.15 401.97 245.24C401.76 245.33 401.66 245.57 401.75 245.77Z" />
						<path id="&lt;Path&gt;" class="shp2" d="M408.23 253.13C408.12 253.5 407.96 253.66 407.95 254.04C407.87 256.42 408.79 258.71 409.35 261.01C409.84 263.08 410.36 265.14 411.17 267.11C411.39 267.65 411.68 268.06 411.96 268.57C412 268.79 412.21 268.92 412.42 268.87C412.64 268.83 412.77 268.62 412.73 268.41C412.77 267.83 412.87 267.33 412.86 266.76C412.79 264.61 412.42 262.5 411.96 260.41C411.44 258.05 411.15 255.5 409.75 253.51C409.53 253.19 409.31 253.14 409.01 252.89C408.94 252.68 408.72 252.55 408.5 252.62C408.29 252.69 408.17 252.92 408.23 253.13Z" />
						<path id="&lt;Path&gt;" class="shp2" d="M415.69 259.98L415.78 260.06C415.92 260.17 415.88 260.41 415.92 260.58C416.37 262.37 417.02 264.1 417.48 265.9C418.01 267.97 418.28 270.07 418.46 272.19C418.52 272.54 418.29 272.89 417.93 272.95C417.57 273.02 417.23 272.78 417.17 272.42C416.47 269.6 415.17 266.96 414.42 264.15C414.12 263.02 413.61 261.85 413.87 260.72C413.92 260.49 414.01 260.48 414.14 260.28C414.08 259.92 414.32 259.58 414.68 259.51C415.04 259.45 415.38 259.69 415.45 260.05C415.63 260.06 415.69 260.02 415.69 259.98Z" />
						<path id="&lt;Path&gt;" class="shp2" d="M410.17 272.02C410.06 272.34 409.93 272.55 409.88 272.88C409.75 273.96 410 275.05 410.18 276.12C410.52 278.09 411.15 280 411.53 281.97C411.58 282.31 411.89 282.55 412.23 282.51C412.58 282.46 412.82 282.15 412.77 281.81C412.64 279.78 412.52 277.77 412.18 275.77C411.99 274.72 411.88 273.65 411.47 272.67C411.35 272.36 411.16 272.2 410.98 271.93C410.96 271.7 410.75 271.54 410.53 271.57C410.31 271.6 410.15 271.8 410.17 272.02Z" />
						<path id="&lt;Path&gt;" class="shp2" d="M418.93 274.64C418.91 275.19 418.78 275.6 418.85 276.14C418.98 277.23 419.38 278.27 419.74 279.31C419.99 280.02 420.34 280.67 420.64 281.37C420.74 281.79 421.17 282.04 421.59 281.93C422.01 281.82 422.25 281.39 422.15 280.98C421.88 279.56 421.72 278.15 421.29 276.79C421.08 276.15 420.91 275.47 420.49 274.94C420.24 274.63 420.01 274.57 419.68 274.33C419.6 274.12 419.36 274.02 419.15 274.11C418.94 274.19 418.84 274.43 418.93 274.64Z" />
						<path id="&lt;Path&gt;" class="shp2" d="M425.25 272.62C424.76 273.12 424.92 272.39 424.8 273.07C424.76 273.32 424.99 273.54 425.1 273.76C426.38 276.37 427.47 278.88 428.26 281.71C428.31 281.95 428.55 282.11 428.79 282.06C429.03 282.01 429.19 281.77 429.14 281.53C428.87 279.15 428.59 276.89 427.81 274.69C427.51 273.85 427.45 272.69 426.66 272.23C426.2 271.96 426.51 272.22 425.97 272.24C425.87 272.04 425.62 271.97 425.42 272.07C425.22 272.18 425.15 272.42 425.25 272.62Z" />
						<path id="&lt;Path&gt;" class="shp2" d="M417.55 286C417.47 286.49 417.32 286.91 417.29 287.41C417.25 288.09 417.32 288.78 417.4 289.47C417.58 291.21 417.96 292.9 418.32 294.61C418.36 294.89 418.61 295.09 418.89 295.06C419.18 295.02 419.37 294.77 419.34 294.48C419.22 292.47 419.48 290.43 419.16 288.44C419.02 287.54 418.66 286.75 418.36 285.89C418.33 285.67 418.13 285.51 417.91 285.54C417.68 285.57 417.52 285.77 417.55 286Z" />
						<path id="&lt;Path&gt;" class="shp2" d="M425.73 289.82C425.57 290.16 425.37 290.26 425.33 290.63C425.11 292.78 426.4 294.77 426.75 296.91C426.77 297.17 427 297.36 427.25 297.33C427.51 297.31 427.7 297.08 427.67 296.83C427.67 294.85 427.66 292.93 427.36 290.99C427.32 290.75 427.32 290.49 427.2 290.28C427.01 289.96 426.81 289.93 426.54 289.67C426.49 289.45 426.28 289.3 426.06 289.35C425.84 289.39 425.69 289.6 425.73 289.82Z" />
						<path id="&lt;Path&gt;" class="shp2" d="M416.43 301.9C416.16 302.52 415.83 303.05 415.63 303.7C414.9 306.13 414.82 308.7 414.32 311.19C414.25 311.53 414.46 311.87 414.8 311.95C415.14 312.03 415.48 311.82 415.56 311.48C416.19 309 417.02 306.56 417.27 304.02C417.34 303.36 417.24 302.74 417.23 302.07C417.28 301.85 417.14 301.63 416.92 301.59C416.69 301.54 416.48 301.68 416.43 301.9Z" />
						<path id="&lt;Path&gt;" class="shp2" d="M429.26 304.84C428.73 304.94 429.05 304.65 428.61 304.96C428.43 305.1 428.38 305.32 428.31 305.53C427.93 306.66 427.95 307.88 427.77 309.06C427.66 309.53 427.95 310 428.42 310.11C428.89 310.22 429.36 309.94 429.47 309.47C429.85 308.33 430.42 307.25 430.59 306.07C430.62 305.85 430.67 305.62 430.57 305.42C430.33 304.95 430.47 305.35 430.05 305.03C430.1 304.81 429.97 304.59 429.75 304.54C429.53 304.48 429.31 304.62 429.26 304.84Z" />
						<path id="&lt;Path&gt;" class="shp2" d="M438.26 298.7C438.15 299.48 437.9 300.15 437.9 300.92C437.91 302 438.27 303.04 438.42 304.11C438.46 304.57 438.86 304.91 439.31 304.88C439.77 304.84 440.11 304.44 440.08 303.99C440.07 302.88 440.23 301.76 439.98 300.68C439.81 299.91 439.4 299.32 439.07 298.59C439.04 298.36 438.83 298.21 438.61 298.24C438.38 298.27 438.23 298.48 438.26 298.7Z" />
						<path id="&lt;Path&gt;" class="shp2" d="M335.53 162.72L335.33 162.84C335.21 162.91 335.06 162.79 334.92 162.75C333.25 162.31 331.69 161.46 330.3 160.38C328.79 159.2 327.42 157.81 326.38 156.21C326.11 155.78 325.83 155.4 325.69 154.92C325.56 154.48 325.61 154.26 325.58 153.81C325.39 153.57 325.43 153.22 325.66 153.03C325.9 152.84 326.24 152.88 326.44 153.12C326.85 153.24 327.08 153.2 327.48 153.4C328.53 153.92 329.4 154.66 330.38 155.34C332.04 156.5 333.75 157.51 335.59 158.21C335.88 158.32 336.29 158.32 336.45 158.59L336.51 158.7L336.4 159.05C336.33 159.34 336.15 160.03 336.13 160.31C336.13 160.38 336.5 160.53 336.43 160.8C336.36 161.08 335.97 161.03 335.94 161.1C335.72 161.58 335.63 162.17 335.53 162.69L335.53 162.72Z" />
						<path id="&lt;Path&gt;" class="shp2" d="M337.59 158.94C338.4 158.07 337.75 159.36 338.2 158.26C338.31 157.99 338.27 157.82 338.18 157.54C337.98 156.91 337.37 156.49 336.92 156C335.26 154.18 333.38 152.47 331.39 150.98C330.53 150.34 329.64 149.88 328.82 149.23C328.58 148.95 328.15 148.91 327.87 149.15C327.58 149.39 327.55 149.81 327.79 150.09C328.38 151.19 328.98 152.23 329.79 153.21C331.5 155.26 333.31 157.23 335.17 159.08C335.42 159.33 335.65 159.59 336 159.66C337.11 159.86 335.81 159.69 336.9 159.37C337.01 159.57 337.27 159.63 337.46 159.51C337.65 159.38 337.71 159.13 337.59 158.94Z" />
						<path id="&lt;Path&gt;" class="shp2" d="M341.12 153.72C341.01 153.02 341.21 152.69 340.87 152.05C339.98 150.35 338.12 149.3 336.67 147.99C335.18 146.65 333.62 145.52 332.31 144.07C332.19 143.89 331.95 143.83 331.77 143.95C331.58 144.07 331.53 144.31 331.65 144.49C332.57 146.57 333.62 148.58 335.09 150.39C336.21 151.78 337.27 153.43 338.88 154.16C339.53 154.46 339.85 154.25 340.55 154.31C340.72 154.47 340.98 154.46 341.13 154.29C341.29 154.13 341.28 153.87 341.12 153.72Z" />
						<path id="&lt;Path&gt;" class="shp2" d="M323.41 140.64C323.45 141.15 323.34 141.43 323.52 141.92C323.71 142.42 324.14 142.8 324.48 143.21C324.99 143.84 325.47 144.51 326.12 144.99C326.6 145.36 327.09 145.51 327.63 145.77C327.89 146.03 328.31 146.03 328.56 145.78C328.82 145.52 328.83 145.11 328.57 144.85C328.36 144.37 328.28 143.94 328.01 143.5C327.44 142.61 326.65 141.88 325.93 141.1C325.7 140.86 325.5 140.58 325.22 140.42C324.78 140.17 324.52 140.25 324.04 140.12C323.89 139.94 323.64 139.92 323.46 140.06C323.29 140.21 323.26 140.46 323.41 140.64Z" />
						<path id="&lt;Path&gt;" class="shp2" d="M319.3 145.3L319.45 145.26C319.76 145.18 320.05 145.5 320.32 145.68C321.14 146.19 321.92 146.82 322.51 147.6C322.79 147.97 322.91 148.33 323.12 148.73C323.36 148.95 323.38 149.32 323.17 149.57C322.96 149.81 322.58 149.84 322.34 149.62C321.88 149.44 321.47 149.37 321.03 149.14C320.16 148.68 319.37 148.1 318.56 147.55C318.46 147.48 318.31 147.43 318.28 147.31L318.25 147.18L318.33 147.09C318.41 146.96 318.56 146.73 318.58 146.6C318.61 146.46 318.27 146.32 318.42 146.04C318.58 145.76 318.88 145.98 318.98 145.88C319.09 145.79 319.2 145.54 319.27 145.41L319.3 145.3Z" />
						<path id="&lt;Path&gt;" class="shp2" d="M312.96 151.03C313.52 151.49 313.97 152.03 314.58 152.42C315.49 152.99 316.54 153.28 317.54 153.66C317.82 153.79 318.15 153.68 318.29 153.4C318.43 153.13 318.31 152.79 318.04 152.66C317.14 152.1 316.37 151.37 315.42 150.91C314.75 150.59 314.04 150.49 313.33 150.3C313.13 150.2 312.88 150.28 312.78 150.48C312.68 150.68 312.75 150.93 312.96 151.03Z" />
						<path id="&lt;Path&gt;" class="shp2" d="M309.57 139.97C309.84 140.61 309.86 141.16 310.3 141.71C311.15 142.75 312.5 143.21 313.65 143.91C314 144.18 314.5 144.12 314.77 143.78C315.04 143.43 314.98 142.93 314.63 142.66C313.69 141.74 313.06 140.49 311.93 139.81C311.32 139.45 310.78 139.52 310.09 139.35C309.92 139.2 309.66 139.22 309.51 139.4C309.37 139.57 309.39 139.83 309.57 139.97Z" />
						<path id="&lt;Path&gt;" class="shp2" d="M313.74 132.75C313.81 133.02 313.79 133.23 313.93 133.49C314.36 134.29 315.17 134.82 315.83 135.45C316.13 135.75 316.62 135.74 316.92 135.43C317.21 135.13 317.21 134.64 316.9 134.34C316.26 133.73 315.79 132.95 315.06 132.46C314.82 132.3 314.61 132.3 314.35 132.2C314.2 132.03 313.94 132.02 313.77 132.17C313.61 132.32 313.59 132.58 313.74 132.75Z" />
						<path id="&lt;Path&gt;" class="shp2" d="M421.23 157.86C421.77 157.86 421.71 158.16 422.19 157.91C423.21 157.38 423.62 156.12 424.3 155.2C424.63 154.75 424.85 154.3 425.14 153.84C425.54 153.5 425.58 152.91 425.24 152.52C424.9 152.13 424.31 152.09 423.92 152.43C423.45 152.63 423.01 152.78 422.56 153.06C421.57 153.67 420.73 154.48 419.95 155.34C419.75 155.57 419.43 155.75 419.4 156.05C419.35 156.71 419.46 156.22 419.78 156.8C419.49 157.2 419.57 157.76 419.98 158.05C420.37 158.34 420.94 158.26 421.23 157.86Z" />
						<path id="&lt;Path&gt;" class="shp2" d="M429.4 152.75L429.49 152.58C429.56 152.44 429.75 152.43 429.89 152.37C430.97 151.89 432.05 151.39 433.18 151.03C433.72 150.86 434.22 150.82 434.77 150.7C435 150.58 435.29 150.68 435.41 150.91C435.53 151.15 435.44 151.44 435.2 151.56C434.79 151.94 434.47 152.33 434.02 152.66C433.02 153.4 431.91 153.99 430.76 154.45C430.61 154.51 430.45 154.65 430.3 154.59L430.11 154.53C430.15 154.46 430.12 154.31 429.94 154.01C429.73 154.09 429.49 153.99 429.41 153.78C429.33 153.57 429.43 153.33 429.64 153.25C429.57 152.89 429.48 152.77 429.4 152.75Z" />
						<path id="&lt;Path&gt;" class="shp2" d="M430.35 147.68C430.74 147.72 430.8 147.9 431.16 147.78C432.83 147.23 433.8 145.55 435.21 144.5C435.46 144.34 435.53 144.02 435.38 143.77C435.23 143.52 434.9 143.45 434.66 143.6C433.2 144.3 431.73 144.91 430.41 145.83C430.24 145.95 430.04 146.04 429.94 146.22C429.76 146.56 429.88 146.66 429.83 147.05C429.66 147.19 429.63 147.45 429.78 147.63C429.92 147.8 430.18 147.83 430.35 147.68Z" />
						<path id="&lt;Path&gt;" class="shp2" d="M434.7 139.51L439.23 137.63C439.52 137.5 439.64 137.16 439.51 136.87C439.38 136.59 439.04 136.47 438.76 136.59L434.35 138.76C434.15 138.86 434.06 139.1 434.15 139.31C434.25 139.51 434.49 139.6 434.7 139.51Z" />
						<path id="&lt;Path&gt;" class="shp2" d="M288.95 233.59L288.93 233.46C288.88 233.21 289.13 233 289.26 232.78C290.53 230.6 291.96 228.44 293.63 226.51C294.67 225.31 295.7 224.18 297.01 223.34C297.44 223.07 297.75 223.01 298.21 222.82C298.47 222.47 298.97 222.41 299.31 222.67C299.65 222.93 299.72 223.42 299.46 223.77C299.39 224.25 299.44 224.57 299.31 225.04C298.88 226.5 298.2 227.8 297.47 229.16C296.29 231.37 294.91 233.49 293.47 235.5C293.32 235.71 293.23 236.03 292.98 236.09L292.86 236.12C291.74 236.4 293.68 236.41 292.44 235.83C291.9 236.68 290.76 236.92 289.92 236.38C289.07 235.83 288.83 234.7 289.38 233.86C288.35 232.96 289.15 234.73 288.95 233.59Z" />
						<path id="&lt;Path&gt;" class="shp2" d="M294.1 239.48C294.88 239.76 294.55 239.95 295.37 239.88C296 239.83 296.48 239.4 296.96 239C298.48 237.76 299.5 236.05 300.64 234.44C301.39 233.38 301.98 232.31 302.77 231.28C303.02 231.06 303.04 230.69 302.83 230.45C302.61 230.2 302.24 230.17 301.99 230.39C300.82 231.05 299.72 231.71 298.65 232.55C297.15 233.71 295.63 234.82 294.34 236.21C293.96 236.61 293.57 237.01 293.43 237.55C293.22 238.32 293.52 238.04 293.59 238.84C293.42 238.98 293.39 239.24 293.52 239.42C293.66 239.59 293.92 239.62 294.1 239.48Z" />
						<path id="&lt;Path&gt;" class="shp2" d="M300.67 241.72C301.52 241.88 301.26 242.3 302.07 241.99C304.28 241.14 304.87 238.24 306.28 236.34C306.55 236.06 306.55 235.61 306.26 235.34C305.98 235.07 305.53 235.08 305.26 235.36C303.42 236.84 300.56 237.53 299.78 239.76C299.49 240.58 299.9 240.3 300.09 241.15C299.93 241.31 299.93 241.56 300.09 241.72C300.25 241.88 300.52 241.88 300.67 241.72Z" />
						<path id="&lt;Path&gt;" class="shp2" d="M301.96 227.6C302.54 227.47 302.69 227.69 303.17 227.35C304.23 226.61 304.61 225.23 305.3 224.15C306 223.04 306.58 221.91 307.32 220.8C307.54 220.58 307.52 220.23 307.3 220.02C307.07 219.8 306.72 219.82 306.51 220.04C304.87 221.42 303.32 222.79 301.98 224.43C301.64 224.84 301.24 225.24 301.04 225.75C300.94 225.98 300.89 226.18 300.93 226.44C301 226.94 301.05 226.71 301.27 227.16C301.15 227.35 301.2 227.61 301.39 227.72C301.58 227.84 301.84 227.79 301.96 227.6Z" />
						<path id="&lt;Path&gt;" class="shp2" d="M304.77 213.77C305.39 213.67 305.35 214.03 305.86 213.66C307.38 212.55 307.65 210.38 308.75 208.85C309.01 208.57 308.98 208.13 308.7 207.88C308.42 207.63 307.98 207.65 307.73 207.93C306.22 209.29 303.75 210.33 303.56 212.36C303.5 213.01 303.73 212.82 304.04 213.4C303.93 213.6 304.02 213.84 304.22 213.95C304.42 214.05 304.67 213.97 304.77 213.77Z" />
						<path id="&lt;Path&gt;" class="shp2" d="M309.56 224.35C310.27 224.15 310.68 224.28 311.25 223.81C312.69 222.61 312.91 220.5 313.9 218.89C314.16 218.57 314.11 218.11 313.79 217.85C313.47 217.59 313 217.64 312.75 217.96C311.37 219.29 309.58 220.35 308.9 222.13C308.64 222.8 308.93 223.14 308.92 223.85C308.78 224.02 308.81 224.28 308.99 224.42C309.17 224.56 309.43 224.52 309.56 224.35Z" />
						<path id="&lt;Path&gt;" class="shp2" d="M311.95 230.55C312.56 230.99 311.69 230.8 312.43 230.89C312.66 230.92 312.85 230.77 313.04 230.64C314.98 229.36 316.22 227.19 317.68 225.41C317.94 225.13 317.93 224.69 317.65 224.43C317.37 224.16 316.93 224.17 316.67 224.45C315.02 225.97 312.99 227.16 311.49 228.85C311.34 229.02 311.19 229.18 311.18 229.4C311.14 230.14 311.12 229.25 311.43 229.93C311.25 230.07 311.23 230.33 311.37 230.5C311.52 230.68 311.77 230.7 311.95 230.55Z" />
						<path id="&lt;Path&gt;" class="shp2" d="M313.63 213.21C314.18 212.93 314.59 213 315.02 212.57C316.26 211.32 316.53 209.44 317.38 207.92C317.53 207.72 317.5 207.44 317.3 207.28C317.1 207.13 316.82 207.17 316.67 207.36C315.36 208.6 313.53 209.51 312.9 211.2C312.67 211.8 312.89 212.17 312.92 212.8C312.81 212.99 312.88 213.25 313.07 213.36C313.27 213.47 313.52 213.4 313.63 213.21Z" />
						<path id="&lt;Path&gt;" class="shp2" d="M298.7 222.42L301.23 219.02C301.38 218.83 301.35 218.55 301.16 218.39C300.97 218.24 300.69 218.27 300.53 218.47L298.02 221.96C297.89 222.15 297.95 222.4 298.13 222.53C298.32 222.65 298.57 222.61 298.7 222.42Z" />
						<path id="&lt;Path&gt;" class="shp2" d="M318.01 199.54C318.41 199.24 318.74 199.19 319.04 198.8C319.64 198.01 319.88 197.02 320.22 196.08C320.37 195.65 320.41 195.24 320.54 194.78C320.71 194.49 320.61 194.12 320.32 193.95C320.03 193.78 319.65 193.87 319.48 194.16C318.64 195.24 317.8 196.22 317.22 197.42C317.12 197.63 317.01 197.84 316.99 198.07C316.96 198.55 317.13 198.78 317.24 199.26C317.17 199.47 317.27 199.7 317.48 199.78C317.7 199.86 317.93 199.75 318.01 199.54Z" />
						<path id="&lt;Path&gt;" class="shp2" d="M322.66 213.44C322.86 213.4 322.96 213.46 323.13 213.36C324.12 212.79 324.68 211.7 325.42 210.83C326.29 209.81 327.02 208.75 327.78 207.65C327.97 207.46 327.97 207.17 327.78 206.98C327.59 206.8 327.29 206.8 327.11 206.98C325.83 207.93 324.5 208.7 323.25 209.67C322.49 210.26 321.49 210.72 321.13 211.62C321.05 211.81 321.13 211.85 321.13 212.06C320.75 212.48 320.79 213.13 321.21 213.51C321.63 213.89 322.28 213.86 322.66 213.44Z" />
						<path id="&lt;Path&gt;" class="shp2" d="M327.03 199.66C327.45 199.44 327.65 199.39 327.8 199.26C328.08 199.02 328.07 198.9 328.52 198.32C328.77 198.03 328.73 197.58 328.43 197.33C328.14 197.07 327.69 197.11 327.44 197.41C326.92 197.95 326.78 197.97 326.61 198.3C326.51 198.48 326.5 198.69 326.39 199.15C326.25 199.33 326.28 199.59 326.46 199.72C326.64 199.86 326.89 199.83 327.03 199.66Z" />
						<path id="&lt;Path&gt;" class="shp5" d="M389.72 233.64L389.95 233.35C390.41 232.74 391.42 232.99 392.16 232.81C399.59 230.94 406.86 226.61 412.13 220.56C416.28 215.81 419.25 210.24 420.24 204.44C420.26 204.32 420.37 204.23 420.49 204.24C420.62 204.26 420.71 204.37 420.69 204.49C420.36 212.14 416.79 219.85 411.43 226.13C406.52 231.9 400.14 236.56 393.24 238.56C392.5 238.77 391.64 239.45 391 239.05L390.7 238.87L390.69 238.58C390.61 237.94 390.52 237.25 390.3 236.64C390.27 236.57 389.87 236.59 389.82 236.32C389.77 236.03 390.15 235.94 390.15 235.84C390.17 235.18 390 234.46 389.81 233.84L389.72 233.64Z" />
					</g>
				</g>
			</g>
			<g id="&lt;Group&gt;">
				<path id="&lt;Path&gt;" class="shp6" d="M377.27 179.09C385.07 179.09 391.39 185.41 391.39 193.2C391.39 201 385.07 207.32 377.27 207.32C369.48 207.32 363.16 201 363.16 193.2C363.16 185.41 369.48 179.09 377.27 179.09Z" />
				<g id="&lt;Clip Group&gt;" clip-path="url(#cp2)">
					<g id="&lt;Group&gt;">
						<g id="&lt;Group&gt;">
							<path id="&lt;Path&gt;" class="shp7" d="M373.37 184.75C380.99 184.75 387.17 191.07 387.17 198.87C387.17 206.66 380.99 212.98 373.37 212.98C365.75 212.98 359.58 206.66 359.58 198.87C359.58 191.07 365.75 184.75 373.37 184.75Z" />
						</g>
					</g>
				</g>
			</g>
			<g id="&lt;Group&gt;">
				<path id="&lt;Path&gt;" class="shp2" d="M238.6 559.96C240.61 562.33 237.77 561.58 240.81 562.31C244.25 563.15 247.35 559.26 250.37 556.9C257.3 551.47 263.15 543.5 268.34 537.62C276.89 527.8 284.13 516.93 289.42 505.32C293.03 497.39 295.74 489.13 297.42 480.72C299.96 468.02 300.34 454.93 297.67 442.05C295.98 433.85 293 425.81 288.87 417.95C288.4 416.93 287.19 416.48 286.17 416.95C285.15 417.42 284.7 418.63 285.17 419.65C288.3 427.45 290.11 435.32 291.15 443.15C292.75 455.25 292.12 467.29 289.41 478.99C287.6 486.76 284.92 494.35 281.53 501.7C276.51 512.55 269.94 522.87 262 532.14C257.05 537.99 251.29 545.72 244.81 551.3C243.27 552.63 241.74 553.89 240.1 554.91C239.46 555.31 238.54 555.39 238.17 556.03C236.62 558.68 238.33 556.15 238.32 559.19C238.11 559.27 238 559.5 238.08 559.72C238.16 559.93 238.39 560.04 238.6 559.96Z" />
			</g>
			<g id="&lt;Group&gt;">
				<path id="&lt;Path&gt;" class="shp2" d="M363.79 536.74C364.67 535.95 365.51 535.35 366.27 534.48C369.24 531.08 371.26 527.23 373.33 523.59C376.61 517.8 379.19 512.04 381.22 506.26C383.39 500.13 384.85 493.95 385.89 487.7C387.61 477.3 388.41 466.62 387.63 455.19C387.17 448.35 385.89 441.36 384.65 433.88C384.57 432.89 383.7 432.16 382.71 432.24C381.72 432.32 380.99 433.19 381.07 434.18C381.07 441.64 380.65 448.61 380.53 455.37C380.33 466.35 380.19 476.55 378.63 486.53C377.71 492.45 376.39 498.28 374.71 504.19C373.11 509.83 371.18 515.52 368.82 521.43C367.31 525.22 365.34 528.93 363.89 533.09C363.51 534.17 363.39 535.18 363.1 536.32C362.98 536.51 363.04 536.76 363.23 536.88C363.43 536.99 363.68 536.93 363.79 536.74Z" />
			</g>
			<g id="&lt;Group&gt;">
				<path id="&lt;Path&gt;" class="shp2" d="M426.37 526.12C428.61 525.12 430.69 524.44 432.75 523.05C437.13 520.1 440.6 515.91 444.17 511.89C450.07 505.26 455.33 497.93 459.6 490.08C463.9 482.17 467.13 473.71 469.37 465.1C472.61 452.6 473.68 439.67 471.75 427C469.91 414.88 465.34 403.07 457.67 392.04C457.42 391.65 456.9 391.53 456.51 391.78C456.11 392.03 455.99 392.55 456.24 392.94C462.31 403.7 465.45 414.9 466.49 426.15C467.2 433.83 466.9 441.52 465.68 449.13C464.32 457.6 461.75 465.89 458.45 473.94C455.17 481.93 451.04 489.59 446.4 496.92C441.38 504.87 435.76 512.35 429.61 519.18C429.3 519.53 428.95 519.85 428.69 520.24C427.49 521.99 426.88 523.68 425.83 525.5C425.66 525.65 425.64 525.91 425.79 526.08C425.94 526.25 426.2 526.27 426.37 526.12Z" />
			</g>
			<g id="&lt;Group&gt;">
				<path id="&lt;Path&gt;" class="shp4" d="M320.23 358.43C320.64 358.24 321.1 358.05 321.71 357.93C325.81 357.16 333.31 358.33 338.26 360.45C342.45 362.23 345.06 365.15 345.1 368.93C345.1 369.42 344.44 372.7 340.98 372.83C339.22 372.89 334.72 372.64 334.49 372.61C332.77 372.4 330.98 372.13 329.2 371.76C327.37 371.49 325.52 371.12 323.78 370.46C322.83 370.11 321.92 369.7 321.06 369.19C320.3 368.84 319.58 368.45 318.88 368.03C318.29 367.67 314.77 365.29 313.99 363.88C313.28 362.59 313.34 361.4 313.79 360.47C314.09 359.86 314.77 358.89 316.25 358.56C317.18 358.35 319.3 358.4 320.23 358.43Z" />
			</g>
			<g id="&lt;Group&gt;">
				<path id="&lt;Path&gt;" class="shp4" d="M344.34 385.32C344.52 384.28 345.17 383.06 346.93 382.42C348.29 381.92 352.2 381.44 352.3 381.43C355.05 381.2 357.93 381.26 360.76 381.66C362.81 381.95 364.85 382.42 366.8 383.07C368.73 383.5 370.6 384.15 372.19 385.34C372.5 385.58 372.66 385.84 372.91 386.14C373.29 386.33 373.65 386.55 374.02 386.77C375.26 387.54 375.39 388.63 375.51 389.29C375.71 390.29 375.33 391.23 374.57 392.11C374.48 392.22 374.37 392.32 374.24 392.43C374.06 392.62 373.85 392.8 373.61 392.97C371.25 394.64 367.91 395.61 364.31 395.87C359.59 396.2 354.47 395.46 351.16 394.43C349.71 393.98 347.65 393.21 346.16 392.01C344.77 390.89 343.77 389.49 343.64 387.78C343.57 386.91 343.78 386.06 344.34 385.32Z" />
			</g>
			<g id="&lt;Group&gt;">
				<path id="&lt;Compound Path&gt;" fill-rule="evenodd" class="shp4" d="M378.45 360.83L379.97 360.26C382.44 359.51 385.19 358.88 387.91 358.65C389.87 358.5 391.83 358.54 393.68 358.9C394.1 358.97 396.82 359.69 398.02 360.63C399.3 361.63 399.72 362.89 399.57 364.05C399.46 364.83 398.89 366.06 397.47 366.95C396.02 367.87 393.27 368.84 392.72 369.02C389.97 369.94 383.39 371.8 378.69 371.14C376.09 370.78 373.98 369.74 372.79 367.87C372.45 367.5 372.27 367.1 372.15 366.81C371.78 365.89 371.79 364.85 372.52 363.78C372.62 363.62 372.98 363.36 373.43 363.08C373.61 362.96 373.81 362.84 374.02 362.73C374.51 362.44 375.02 362.16 375.34 361.99L376.58 361.53C377.48 361.16 378.21 360.9 378.32 360.86L378.45 360.83ZM393.75 362.68L393.85 362.64L393.77 362.64L393.75 362.68Z" />
			</g>
			<g id="&lt;Group&gt;">
				<path id="&lt;Path&gt;" class="shp4" d="M405.21 345.99C404.58 345.35 404.15 344.75 405.03 345.02C405.09 345.04 405.08 344.86 405.13 344.71C405.42 343.86 406.19 341.78 406.26 341.63C406.9 340.14 407.59 338.6 408.46 337.18C409.07 336.18 409.76 335.24 410.58 334.4C411.02 333.95 412.5 332.51 413.61 332.47C414.32 332.45 414.97 332.54 415.35 333.12C415.73 333.63 415.96 334.28 415.83 335.12C415.69 336.07 415.34 337.31 415.2 337.78C414.6 339.8 412.99 343.74 410.77 345.88C409.49 347.11 408.01 347.77 406.41 347.52C405.81 347.43 405.37 347.05 405.23 346.33C405.21 346.23 405.2 346.12 405.21 345.99Z" />
			</g>
			<g id="&lt;Group&gt;">
				<path id="&lt;Compound Path&gt;" fill-rule="evenodd" class="shp4" d="M409.76 363.94C409.98 363.86 410.2 363.78 410.42 363.68C410.59 363.53 410.85 363.54 411 363.71C411.1 363.82 411.13 363.97 411.09 364.1C411.61 364.31 412.04 364.71 412.33 365.3C412.68 366.07 412.72 367 412.11 367.92C411.4 369 409.62 370.25 408.18 370.77C408.09 370.84 408 370.91 407.91 370.97C407.06 371.53 406.13 371.45 405.16 371.16C404.86 371.04 403.68 369.88 404.58 368.27C404.99 367.55 406.14 366.08 407.3 365.12C408.14 364.42 408.99 364.03 409.76 363.94ZM406.59 368.07L406.57 368.1C406.57 368.18 406.6 368.22 406.65 368.23C406.69 368.23 406.74 368.21 406.8 368.17L406.68 368.1L406.59 368.07Z" />
			</g>
			<g id="&lt;Group&gt;">
				<path id="&lt;Path&gt;" class="shp4" d="M392.84 151.01C394.67 150.62 394.84 151.37 396.41 150.32C396.84 150.04 396.98 149.48 397.26 149.04C403.58 139.36 411.38 130.05 418.52 121.09C421.74 116.93 425.12 112.65 428.47 108.3C431.7 104.12 434.91 99.85 438.38 95.85C442.99 90.54 447.91 85.6 453.37 81.54C470.21 69.56 489.51 61.78 507.43 51.69C515.38 47.22 523.04 42.27 530.17 36.45C533.48 33.55 536.4 30.29 538.74 26.58C543.78 18.55 546.69 9.26 552.34 1.7C552.54 1.49 552.53 1.16 552.32 0.96C552.11 0.75 551.78 0.76 551.58 0.98C543.44 7.92 537.58 17.24 530.16 24.93C528.48 26.67 526.8 28.41 524.86 29.89C518.06 35.35 510.72 39.89 503.18 44.12C484.97 54.33 465.54 62.52 448.53 74.77C442.41 78.98 436.81 84.14 431.59 89.75C427.82 93.8 424.19 98.05 420.83 102.44C417.46 106.84 414.39 111.4 411.3 115.73C405.37 124.24 398.68 132.93 393.46 142.12C392.51 143.79 390.92 145.28 390.82 147.17C390.73 149.08 391.41 148.86 392.12 150.62C392.01 150.83 392.09 151.07 392.28 151.18C392.48 151.28 392.73 151.21 392.84 151.01Z" />
			</g>
			<g id="&lt;Group&gt;">
				<path id="&lt;Path&gt;" class="shp4" d="M448.7 79.75C450.14 79.76 449.51 80.25 450.88 79.77C451.14 79.68 451.28 79.48 451.48 79.28C453.4 77.32 454.97 75.05 456.68 72.78C458.36 70.54 459.99 68.25 461.45 65.83C462.77 63.64 463.92 61.35 464.93 59.04C466.52 55.4 467.68 51.65 468.47 47.87C469.19 44.12 469.61 40.36 469.72 36.56C469.96 28.04 469.08 19.59 470.16 11.15C470.23 10.88 470.05 10.6 469.78 10.54C469.5 10.48 469.22 10.65 469.16 10.93C468.33 13.27 467.64 15.59 467.09 18.01C464.96 27.3 464.45 36.91 461.24 45.96C459.76 50.84 457.17 55.41 454.73 60.1C453.74 62.01 452.84 63.96 451.91 65.9C450.46 68.93 449 71.88 447.79 74.92C447.45 75.76 446.85 76.53 446.94 77.42C447.07 78.87 447.29 78.08 447.99 79.34C447.88 79.53 447.94 79.78 448.14 79.89C448.33 80.01 448.58 79.95 448.7 79.75Z" />
			</g>
			<g id="&lt;Group&gt;">
				<path id="&lt;Path&gt;" class="shp4" d="M468.16 70.3C469.6 71.76 468.59 71.76 470.47 72.52C470.71 72.62 470.97 72.54 471.24 72.51C475.56 72.11 479.56 70.83 483.73 70.08C486.13 69.65 488.57 69.24 491.18 69.3C498.25 69.21 506.09 70.99 513.56 71.32C517.26 71.49 520.87 71.31 524.27 70.59C528.3 69.62 532.17 67.91 535.9 65.74C538.96 63.96 541.95 62.01 544.85 60.04C546.01 59.25 547.18 58.53 548.25 57.69C549.03 57.07 549.61 56.42 550.35 55.79C550.94 55.52 551.21 54.81 550.93 54.22C550.66 53.62 549.95 53.36 549.36 53.64C548.28 53.83 547.28 53.96 546.2 54.29C545.21 54.58 544.28 55.03 543.31 55.46C539.08 57.31 534.87 59.51 530.53 61.1C528.02 62.01 525.5 62.7 522.93 62.99C520.11 63.39 517.17 63.22 514.16 62.93C506.5 62.18 498.48 60.28 491.22 60.13C488.42 60.15 485.76 60.4 483.22 61.03C480.75 61.64 478.41 62.55 476.06 63.49C473.75 64.42 470.89 64.48 469.1 66.3C467.68 67.74 468.71 67.59 467.98 69.5C467.76 69.55 467.62 69.77 467.68 69.99C467.72 70.21 467.94 70.35 468.16 70.3Z" />
			</g>
			<g id="&lt;Group&gt;">
				<path id="&lt;Path&gt;" class="shp4" d="M437.75 86.42L437.98 85.94C438.05 85.81 438.09 85.79 438.22 85.74C439.92 84.95 441.91 85.45 443.75 85.61C448.91 86.03 453.95 87.84 458.91 89.76C463.43 91.51 467.98 93.18 472.35 94.89C475.89 96.27 479.04 98.05 482.79 98.37C485.2 98.58 487.65 98.37 490.25 97.7C490.7 97.52 491.21 97.74 491.39 98.19C491.57 98.63 491.36 99.14 490.91 99.33C488.19 100.87 485.46 101.65 482.71 102.28C479.67 102.99 476.79 103.34 473.67 103.25C472.66 103.22 471.67 103.12 470.66 102.94C466.96 102.24 463.36 100.74 459.74 99.29C453.61 96.85 447.54 94.25 441.19 93.22C440.18 93.05 438.91 93.42 438.17 92.7L437.78 92.35L437.82 92.23C437.95 91.41 437.93 90.46 437.73 89.65C437.71 89.55 437.32 89.55 437.31 89.25C437.3 88.96 437.69 88.93 437.71 88.83C437.84 88.11 437.8 87.3 437.77 86.57L437.75 86.42Z" />
			</g>
			<g id="&lt;Group&gt;">
				<path id="&lt;Path&gt;" class="shp4" d="M414.79 117.31C414.94 117.52 414.98 117.4 413.5 116.17C412.76 115.55 412.8 114.44 412.55 113.51C412.2 112.17 412 110.79 411.81 109.42C411.58 107.63 411.44 105.82 411.38 104.01C411.32 102.16 411.25 100.33 411.48 98.5C411.82 95.81 412.58 93.62 413.28 91.01C413.24 90.34 413.75 89.77 414.41 89.74C415.08 89.7 415.65 90.2 415.69 90.87C416.66 93.32 417.81 95.27 418.65 97.78C419.22 99.51 419.55 101.26 419.9 103.05C420.26 104.82 420.54 106.61 420.71 108.4C420.85 109.81 420.96 111.22 420.89 112.63C420.84 113.63 421.13 114.74 420.49 115.51C419.86 116.28 419.57 116.68 419.46 116.86C419.05 117.48 420.7 115.45 417.47 116.58C417.49 116.8 417.33 117 417.1 117.02C416.88 117.04 416.68 116.87 416.66 116.65C414.22 116.27 414.59 117.05 414.79 117.31Z" />
			</g>
			<g id="&lt;Group&gt;">
				<path id="&lt;Path&gt;" class="shp4" d="M362.38 148.12C364.16 146.38 363.59 148.61 364.38 146.25C364.54 145.78 364.28 145.29 364.18 144.8C362.5 137.13 360.93 129.18 357.46 122.23C356.49 120.46 355.39 118.78 354.22 117.15C350.08 111.41 344.85 106.46 341.57 100.23C339.07 95.75 337.45 90.85 335.24 86.22C334.18 84.01 332.99 81.85 331.62 79.79C326.76 72.57 320.64 65.15 314 58.23C307.38 51.32 300.27 44.89 293.1 39.97C289.95 37.8 286.62 36.2 283.13 35C278.5 33.4 273.7 32.28 268.89 31.18C265.78 30.47 262.7 29.9 259.68 28.81C259.14 28.54 258.48 28.76 258.21 29.3C257.94 29.85 258.16 30.5 258.7 30.77C261.14 32.37 263.61 33.75 266.27 34.85C272.16 37.31 278.44 38.71 284.13 41.56C286.01 42.5 287.83 43.56 289.57 44.87C296.16 49.84 302.73 56.16 308.59 63.1C314.45 70.03 319.54 77.58 323.58 84.75C326.55 89.8 328.12 95.43 330.46 100.73C331.12 102.23 331.86 103.68 332.65 105.11C333.65 106.9 334.78 108.6 336.01 110.24C340.27 115.88 345.76 120.67 349.45 126.83C353.41 132.88 354.61 140.56 357.99 147.04C358.25 147.53 358.37 148.16 358.86 148.42C361.07 149.62 359.11 148.48 361.62 148.43C361.71 148.64 361.95 148.74 362.16 148.65C362.36 148.56 362.46 148.32 362.38 148.12Z" />
			</g>
			<g id="&lt;Group&gt;">
				<path id="&lt;Path&gt;" class="shp4" d="M308.88 62.16L308.74 62.06C308.36 61.79 308.5 61.2 308.42 60.74C307.77 57.2 308.62 53.52 307.75 50.04C307.18 46.27 306.44 42.54 305.84 38.81C305.22 34.98 304.6 31.17 304.27 27.32C303.59 19.5 303.76 11.75 304.8 3.74C304.82 2.84 305.57 2.13 306.47 2.16C307.37 2.18 308.08 2.93 308.05 3.83C308.29 6.9 308.72 9.85 309.21 12.82C310.01 17.64 311.24 22.27 312.29 27.01C313.08 30.58 313.77 34.17 314.43 37.79C315.11 41.44 315.64 45.12 316.14 48.84C316.3 50.65 316.28 52.47 315.96 54.27C315.57 56.4 314.87 58.43 314.56 60.58C314.51 60.9 314.6 61.28 314.38 61.51L314.3 61.6L313.9 61.63C313.28 61.69 312.58 61.71 311.97 61.87C311.9 61.89 311.88 62.29 311.61 62.32C311.34 62.35 311.23 61.96 311.16 61.95C310.53 61.92 309.85 62.05 309.22 62.12L308.88 62.16C310.34 63.2 311.28 64 311.82 64.61C312.24 63.91 313.03 62.92 314.3 61.6L314.44 61.59C314.88 61.57 315.31 61.55 315.75 61.58C317.25 61.68 317.85 62.52 316.69 63.67C315.53 64.8 313.91 65.82 312.3 66.1L312.13 66.12C310.36 66.94 301.44 63.22 308.88 62.16Z" />
			</g>
			<g id="&lt;Group&gt;">
				<path id="&lt;Path&gt;" class="shp4" d="M325.51 81.9C325.48 79.09 326.86 81.65 325.3 79.31C324.87 78.67 323.93 78.74 323.19 78.51C321.68 78.03 320.13 77.83 318.51 77.71C316.54 77.57 314.54 77.7 312.66 77.46C309.93 77.23 307.23 76.66 304.51 76.18C301.73 75.69 298.97 75.3 296.21 74.65C293.78 74.09 291.42 73.53 289.07 72.78C287.9 72.24 286.5 72.74 285.96 73.91C285.41 75.08 285.92 76.48 287.09 77.02C291.58 79.82 296.23 82.44 301.34 84.05C304.78 85.14 308.39 85.56 311.96 85.87C314.03 85.95 316.2 85.89 318.34 85.6C320.12 85.36 321.78 84.93 323.52 84.9C323.67 84.89 323.83 84.92 323.96 84.85C326.33 83.47 323.68 84.92 325.27 82.68C325.48 82.74 325.71 82.63 325.78 82.41C325.84 82.19 325.72 81.97 325.51 81.9Z" />
			</g>
			<g id="&lt;Group&gt;">
				<path id="&lt;Path&gt;" class="shp4" d="M335.38 104.26C335.48 104.46 335.72 104.52 334.76 103.66C334.32 103.26 334.48 102.52 334.37 101.93C333.71 98.25 333.81 94.29 334.52 90.14C334.93 87.69 335.62 85.2 336.52 82.76C339.03 75.99 342.55 69.26 346.07 63.5C347.25 61.56 348.48 59.9 349.7 58.25C350.3 57.44 350.89 56.83 351.47 56.08C351.68 55.52 352.3 55.23 352.86 55.44C353.41 55.65 353.7 56.27 353.49 56.83C353.42 57.9 353.39 58.88 353.21 60.03C352.85 62.31 352.29 64.62 351.49 67.08C349.85 72.14 347.58 77.46 345.54 82.76C344.21 86.2 342.93 89.59 341.8 92.85C340.61 96.28 339.4 99.4 339.02 102.59C338.98 102.9 339.1 103.26 338.89 103.48L338.66 103.77C338.48 103.67 338.07 103.67 337.28 103.86C337.3 104.09 337.14 104.29 336.91 104.31C336.69 104.33 336.49 104.16 336.47 103.94C335.31 103.78 335.29 104.08 335.38 104.26Z" />
			</g>
			<g id="&lt;Group&gt;">
				<path id="&lt;Path&gt;" class="shp4" d="M349.65 120.53C349.37 118.58 350.6 120.08 349.36 118.55C349.03 118.13 348.38 118.16 347.87 118C344.63 116.97 341.38 116.04 338.07 115.33C334.74 114.62 331.37 114.31 327.99 113.79C326.75 113.5 325.51 114.28 325.22 115.52C324.93 116.77 325.71 118.01 326.95 118.29C330.45 119.35 333.85 120.6 337.39 121.43C339.76 121.99 342.16 122.34 344.56 122.67C345.78 122.84 347.08 123.56 348.2 123.07C349.77 122.38 348.46 122.71 349.48 121.33C349.7 121.38 349.92 121.24 349.96 121.02C350.01 120.8 349.87 120.58 349.65 120.53Z" />
			</g>
			<g id="&lt;Group&gt;">
				<path id="&lt;Compound Path&gt;" fill-rule="evenodd" class="shp4" d="M421.69 322L421.85 321.28L422.55 319.47C424.99 314.96 426.7 317.17 426.65 319.14C426.63 320.24 426.02 322.5 425.08 323.9C424.35 325.01 423.38 325.61 422.51 325.57C421.81 325.54 421.11 325.18 421.09 324.09C421.09 323.69 421.31 322.86 421.69 322ZM423.82 319.12L423.8 319.11C423.72 319.11 423.7 319.14 423.7 319.18L423.82 319.12Z" />
			</g>
			<g id="&lt;Group&gt;">
				<path id="&lt;Compound Path&gt;" fill-rule="evenodd" class="shp4" d="M299.31 371.89C300.4 371.58 301.64 371.49 302.71 371.7L305.08 372.41C306.09 372.59 307.1 372.83 308.1 373.14C310.18 373.78 312.18 374.7 313.88 375.92C314.57 376.44 316.56 378.19 317.07 379.76C317.51 381.09 317.37 382.34 316.13 383.16C315.76 383.41 315.27 383.62 314.65 383.68C313.55 383.78 311.91 383.53 311.26 383.44C308.73 383.16 305.74 382.53 303.06 381.44C301.13 380.66 299.36 379.63 298 378.38C295.9 376.37 295.96 374.67 296.65 373.56C296.83 373.26 297.1 372.98 297.43 372.75C297.75 372.38 298.33 372.01 299.14 371.9L299.31 371.89ZM314.07 380.81C313.94 380.92 313.78 381.05 313.89 381C314 380.95 314.05 380.89 314.07 380.81ZM313.18 379.79C313.17 380.06 313.11 380.35 312.99 380.62L314.07 380.71C314.03 380.45 313.64 380.11 313.18 379.79ZM309.48 379.85C309.46 380.09 309.51 380.24 309.69 380.1C309.76 380.04 309.61 379.93 309.48 379.85ZM301.87 375.74C302.16 375.97 302.42 376.16 302.56 376.23C302.86 376.38 303.17 376.53 303.48 376.65C303.44 376.47 303.45 376.28 303.51 376.1C303.53 376.03 303.55 375.98 303.58 375.93L303 375.85C302.78 375.82 302.56 375.8 302.34 375.78L301.87 375.74ZM300.15 375.36C299.94 375.34 299.77 375.36 299.7 375.45L299.71 375.46L299.88 375.64C299.97 375.56 300.06 375.45 300.15 375.36Z" />
			</g>
			<g id="&lt;Group&gt;">
				<path id="&lt;Path&gt;" class="shp4" d="M301.32 376.9C301.54 377.55 301.14 377.32 301.61 377.82C301.76 377.99 302.01 378.01 302.23 378.07C304.12 378.62 306.05 379.09 307.96 379.63C309.31 380 310.62 380.2 311.93 380.61C312.17 380.75 312.47 380.66 312.6 380.41C312.73 380.17 312.64 379.87 312.4 379.74C311.47 378.96 310.6 378.19 309.53 377.58C308.5 376.99 307.37 376.61 306.24 376.23C305.03 375.82 303.8 375.36 302.54 375.29C302.37 375.28 302.2 375.24 302.05 375.32C301.44 375.65 301.87 375.54 301.44 376.09C301.22 376.05 301.01 376.2 300.98 376.43C300.94 376.65 301.09 376.86 301.32 376.9Z" />
			</g>
			<g id="&lt;Group&gt;">
				<path id="&lt;Path&gt;" class="shp4" d="M302.69 375.34L302.88 375.27C303.2 375.12 303.56 375.43 303.89 375.53C307.07 376.48 310.08 377.72 313.19 378.86C313.49 378.97 313.87 378.99 314.04 379.25L314.32 379.66C314.8 380.31 314.03 378.81 313.99 380.41C314.25 380.47 314.4 380.73 314.34 380.98C314.28 381.24 314.03 381.39 313.77 381.33C313.47 381.95 313.55 382.13 313.68 382.17L313.25 382.37C312.54 382.73 311.69 382.1 310.94 381.86C308.11 380.97 305.54 379.48 302.77 378.35C302.51 378.24 302.14 378.27 301.99 378.02L301.91 377.89C301.97 377.86 302.04 377.73 302.08 377.42C301.64 377.28 301.39 376.81 301.53 376.36C301.67 375.92 302.14 375.67 302.58 375.81C302.74 375.52 302.74 375.39 302.69 375.34Z" />
			</g>
			<g id="&lt;Group&gt;">
				<path id="&lt;Path&gt;" class="shp4" d="M285.23 350.09C285.8 349.79 286.62 349.67 287.67 350.08L289.02 350.72C291.1 351.29 293.34 352.15 294.35 352.93C294.59 353.14 296.3 354.59 296.27 355.61C296.25 356.56 296.29 356.93 295.73 357.35C295.58 357.46 295.48 357.63 295.32 357.75C294.74 358.17 293.29 358.2 291.62 357.66C289.33 356.93 286.43 355.4 285.8 354.95L285.59 354.77C284.53 354.1 283.95 353.58 283.71 353.25C283.05 352.35 283.24 351.6 283.53 351.09C283.76 350.69 284.21 350.25 285.03 350.12C285.1 350.11 285.16 350.1 285.23 350.09Z" />
			</g>
			<g id="&lt;Group&gt;">
				<path id="&lt;Path&gt;" class="shp4" d="M338.8 362.77C336.09 361.21 331.23 358.8 326.53 357.88C322.95 357.17 319.51 357.45 317.14 358.97C315.96 359.76 315.54 360.99 315.68 362.33C315.84 363.78 316.72 365.37 317.51 366.2C318.93 367.67 320.84 368.89 322.96 369.7C324.98 370.46 327.12 370.86 329.01 371.06C329.45 371.14 329.87 370.84 329.95 370.41C330.03 369.97 329.74 369.55 329.3 369.47C327.28 368.96 325 368.06 322.96 366.9C321.67 366.17 320.47 365.33 319.59 364.31C319.28 363.96 318.97 363.39 318.76 362.8C318.59 362.29 318.33 361.71 318.78 361.41C320.59 360.14 323.3 360.11 326.15 360.41C330.72 360.89 335.66 362.37 338.44 363.5C338.64 363.6 338.89 363.51 338.99 363.31C339.09 363.11 339 362.86 338.8 362.77Z" />
			</g>
			<g id="&lt;Group&gt;">
				<path id="&lt;Path&gt;" class="shp4" d="M261.29 512.61C262.11 511.88 263.26 510.93 264.43 510.69C265.24 510.52 266.06 510.6 266.87 511.09C267.64 511.56 268.04 512.34 268.07 513.32C268.09 514.36 267.56 515.74 267.35 516.39C266.88 517.87 266.04 519.35 264.99 520.68C263.99 521.96 262.82 523.12 261.64 524.04C261.31 524.3 260.62 524.84 259.87 525.28C259.36 525.69 258.78 526.09 258.22 526.32C257.32 526.67 256.46 526.61 255.72 526.15C255.07 525.74 254.68 524.91 254.67 523.84C254.67 522.67 255.16 521.12 255.35 520.57C255.83 519.28 256.43 518.11 257.16 517.04C257.91 515.94 258.8 514.94 259.78 513.99C260.24 513.48 260.74 513.02 261.27 512.62L261.29 512.61Z" />
			</g>
			<g id="&lt;Group&gt;">
				<path id="&lt;Path&gt;" class="shp4" d="M240.45 539.59C240.83 539.26 241.23 538.95 241.64 538.65C242.25 538.21 243.65 537.49 244.7 537.55C245.6 537.61 246.36 538.02 246.85 538.97C247.59 540.4 247.37 541.99 246.5 543.52C245.15 545.89 242 548.15 240.61 548.92C239.86 549.33 238.64 549.95 237.6 549.94C236.8 549.94 236.06 549.67 235.43 549.05C235.01 548.63 234.72 548 234.73 547.2C234.73 546.16 235.43 544.57 235.74 544.06C236.36 543.08 238.41 540.87 240.45 539.59Z" />
			</g>
			<g id="&lt;Group&gt;">
				<path id="&lt;Path&gt;" class="shp4" d="M240.87 527C241.5 525.8 242.37 524.46 243.22 523.79C244.23 522.99 245.27 522.82 246.16 523.32C246.58 523.55 246.92 523.89 247.07 524.35C247.43 524.97 247.53 525.84 247.17 526.85C247.05 527.17 246.87 527.54 246.65 527.91C245.96 529.68 244.34 531.75 243.95 532.29C243.71 532.62 242.38 533.81 241.55 533.97C240.59 534.16 239.83 533.82 239.36 532.91C238.93 532.06 238.96 530.85 239.49 529.54C239.59 529.3 239.7 529.05 239.83 528.79C240.09 528.17 240.48 527.55 240.87 527Z" />
			</g>
			<g id="&lt;Group&gt;">
				<path id="&lt;Path&gt;" class="shp8" d="M285.7 238.26C291.86 238.26 296.85 242.7 296.85 248.17C296.85 253.65 291.86 258.09 285.7 258.09C279.54 258.09 274.55 253.65 274.55 248.17C274.55 242.7 279.54 238.26 285.7 238.26Z" />
			</g>
		</g>
	</g>
</svg>