<svg version="1.2" baseProfile="tiny-ps" xmlns="http://www.w3.org/2000/svg" viewBox="0 0 294 215" width="294" height="215">
	<title>OBJECTS</title>
	<defs>
		<clipPath clipPathUnits="userSpaceOnUse" id="cp1">
			<path d="M199.17 124.44C184.03 97.04 178.53 58.47 182.67 8.74C174.79 -0.9 165.6 -0.42 155.12 10.18C141.31 9.9 132.61 18.36 129 35.54C119.1 43.93 115.39 54.26 117.87 66.54C102.59 107.04 121.2 131.11 173.69 138.77L199.17 124.44Z" />
		</clipPath>
		<clipPath clipPathUnits="userSpaceOnUse" id="cp2">
			<path d="M195.31 110.62C217.46 88.5 233.45 52.97 243.27 4.04C253.52 -3.03 262.21 -0.02 269.35 13.07C282.68 16.63 288.7 27.17 287.4 44.68C294.58 55.49 295.28 66.45 289.49 77.56C292.93 120.7 268.37 138.67 215.82 131.46L195.31 110.62Z" />
		</clipPath>
		<clipPath clipPathUnits="userSpaceOnUse" id="cp3">
			<path d="M277.73 138.43L257.09 127.8C255.66 111.25 247.3 100.26 231.99 94.83C209.04 86.68 187.08 91.45 155.52 126.06C123.95 160.66 55.03 150.24 29.1 146.42L0.32 143.56L5 154.33L13.28 163.15C75.2 169.5 108.57 173.49 113.38 175.12C120.59 177.57 169.72 221.11 203.09 201.62C234.31 183.37 251.55 163.76 254.8 142.8L277.73 138.43Z" />
		</clipPath>
		<clipPath clipPathUnits="userSpaceOnUse" id="cp4">
			<path d="M220.65 119.26C224.62 115.7 230.73 116.05 234.29 120.03C237.84 124.01 237.5 130.11 233.52 133.67C229.54 137.22 223.43 136.88 219.88 132.9C216.32 128.92 216.67 122.81 220.65 119.26Z" />
		</clipPath>
	</defs>
	<style>
		tspan { white-space:pre }
		.shp0 { fill: #fae1b5 } 
		.shp1 { fill: #dfba62 } 
		.shp2 { fill: #f7ce87 } 
		.shp3 { fill: #422215 } 
		.shp4 { fill: #9b6854 } 
		.shp5 { fill: #f4f0e2 } 
	</style>
	<g id="OBJECTS">
		<g id="&lt;Group&gt;">
			<g id="&lt;Group&gt;">
				<path id="&lt;Path&gt;" class="shp0" d="M199.17 124.44C184.03 97.04 178.53 58.47 182.67 8.74C174.79 -0.9 165.6 -0.42 155.12 10.18C141.31 9.9 132.61 18.36 129 35.54C119.1 43.93 115.39 54.26 117.87 66.54C102.59 107.04 121.2 131.11 173.69 138.77L199.17 124.44Z" />
				<g id="&lt;Clip Group&gt;" clip-path="url(#cp1)">
					<g id="&lt;Group&gt;">
						<g id="&lt;Group&gt;">
							<path id="&lt;Path&gt;" class="shp1" d="M160.41 -10.04C161.16 -10.43 159.62 -10 161.01 -9.65C161.11 -9.85 161.35 -9.94 161.56 -9.84C161.76 -9.74 161.85 -9.5 161.75 -9.3C162.11 -9.05 162.35 -8.96 162.48 -8.97L162.54 -8.78C162.64 -8.43 162.26 -8.1 162.13 -7.75C160.87 -4.39 160.19 -0.71 159.75 3.08C159.01 9.49 159.05 16.16 158.86 22.09C157.88 36.92 159.49 51.14 162.23 64.69C165.18 79.29 169.5 93.13 175.35 105.76C175.48 106.01 175.38 106.32 175.13 106.45C174.88 106.58 174.57 106.48 174.44 106.23C167.42 93.93 161.27 80.44 157.59 65.74C154.12 51.9 152.95 37.09 153.86 21.78C154.53 14.75 154.86 6.64 156.68 -0.72C157.42 -3.7 158.4 -6.54 159.71 -9.16C159.83 -9.4 159.83 -9.77 160.08 -9.88L160.41 -10.04Z" />
						</g>
						<g id="&lt;Group&gt;">
							<path id="&lt;Path&gt;" class="shp1" d="M136.59 10.38C135.89 11.73 135.18 13.02 134.66 14.46C133.91 16.56 133.53 18.79 133.14 21.02C130.69 35.11 132.3 50.66 136.47 65.29C139.08 74.43 142.69 83.23 146.95 91.07C151.82 100.05 157.57 107.73 163.25 113.53C163.47 113.78 163.85 113.8 164.09 113.57C164.33 113.35 164.35 112.98 164.13 112.73C158.99 106.66 154.15 98.63 149.77 89.62C145.97 81.79 142.59 73.18 140.02 64.27C135.93 50.09 133.93 35.17 135.75 21.41C136.03 19.25 136.51 17.14 136.84 15.01C137.07 13.54 137.13 12.1 137.37 10.64C137.44 10.42 137.32 10.19 137.11 10.12C136.89 10.05 136.66 10.17 136.59 10.38Z" />
						</g>
						<g id="&lt;Group&gt;">
							<path id="&lt;Path&gt;" class="shp1" d="M117.85 42.22C117.6 42.67 117.33 43.05 117.16 43.54C115.87 47.31 116.17 51.79 116.51 56.38C117.26 66.47 120.49 77.77 125.27 88.24C129.4 97.31 134.67 105.77 140.42 112.28C145.3 117.8 150.56 121.88 155.59 123.96C156.16 124.22 156.84 123.96 157.1 123.38C157.35 122.81 157.09 122.13 156.51 121.88C152.95 120.17 149.42 117.23 145.91 113.57C139.36 106.76 133.11 97.22 128.23 86.87C123.46 76.75 119.94 65.93 118.82 56.16C118.32 51.77 118.75 47.65 118.8 43.82C118.81 43.32 118.68 42.89 118.65 42.39C118.69 42.17 118.55 41.95 118.33 41.91C118.11 41.86 117.89 42 117.85 42.22Z" />
						</g>
					</g>
				</g>
			</g>
			<g id="&lt;Group&gt;">
				<path id="&lt;Path&gt;" class="shp2" d="M195.31 110.62C217.46 88.5 233.45 52.97 243.27 4.04C253.52 -3.03 262.21 -0.02 269.35 13.07C282.68 16.63 288.7 27.17 287.4 44.68C294.58 55.49 295.28 66.45 289.49 77.56C292.93 120.7 268.37 138.67 215.82 131.46L195.31 110.62Z" />
				<g id="&lt;Clip Group&gt;" clip-path="url(#cp2)">
					<g id="&lt;Group&gt;">
						<g id="&lt;Group&gt;">
							<path id="&lt;Path&gt;" class="shp1" d="M270.54 -0.27C269.85 0.42 269.36 0.47 268.9 1.34C266.5 5.93 266.73 11.63 265.31 16.94C264.59 19.58 263.86 22.25 263.09 24.93C260.08 35.41 256.28 46.04 251.58 56.14C245.74 68.67 238.76 80.41 230.93 90.09C230.71 90.34 230.74 90.73 231 90.95C231.25 91.18 231.64 91.15 231.86 90.89C244.5 77.1 255.78 58.7 263.55 39.46C265.6 34.37 267.47 29.24 268.88 24.09C270.34 18.72 271.39 13.35 272.02 8.09C272.28 5.9 273.08 3.66 272.52 1.58C272.27 0.69 271.87 0.58 271.35 -0.18C271.38 -0.41 271.21 -0.61 270.99 -0.63C270.77 -0.65 270.56 -0.49 270.54 -0.27Z" />
						</g>
						<g id="&lt;Group&gt;">
							<path id="&lt;Path&gt;" class="shp1" d="M296.91 25.89C296.36 26.25 295.97 26.27 295.53 26.76C292.9 29.72 291.84 33.81 289.86 37.32C284.85 46.21 279.12 54.91 272.72 63.13C269.06 67.82 265.24 72.36 261.33 76.76C255.28 83.55 249.04 90 242.58 95.78C242.06 96.21 241.99 96.98 242.42 97.49C242.86 98 243.62 98.07 244.13 97.64C251.06 92.21 257.95 86.22 264.38 79.59C268.57 75.28 272.55 70.69 276.28 65.92C282.85 57.5 288.77 48.54 293.34 39.15C295.15 35.43 297.74 31.86 298.02 27.81C298.06 27.14 297.82 26.85 297.67 26.19C297.75 25.99 297.65 25.75 297.45 25.66C297.24 25.58 297 25.68 296.91 25.89Z" />
						</g>
						<g id="&lt;Group&gt;">
							<path id="&lt;Path&gt;" class="shp1" d="M303.96 60.13C303.12 59.91 303.86 59.62 303.03 59.89C302.01 60.21 301.64 61.48 300.96 62.27C297.33 66.5 293.77 70.28 290.28 73.77C286.39 77.67 282.62 81.2 278.82 84.37C274.17 88.26 269.5 91.61 264.91 94.8C260.01 98.21 255.22 101.46 250.34 104.6C249.57 105.05 249.31 106.05 249.77 106.82C250.23 107.6 251.23 107.85 252 107.4C257.16 104.6 262.35 101.86 267.45 98.62C272.31 95.53 277.09 92.02 281.86 88C285.77 84.7 289.71 81.06 293.51 76.83C296.89 73.07 300.18 68.86 303.39 64.13C303.98 63.25 305.13 62.51 305.13 61.43C305.13 60.56 305.09 61.35 304.62 60.61C304.75 60.43 304.71 60.18 304.53 60.04C304.35 59.91 304.1 59.95 303.96 60.13Z" />
						</g>
					</g>
				</g>
			</g>
			<g id="&lt;Group&gt;">
				<path id="&lt;Path&gt;" class="shp0" d="M277.73 138.43L257.09 127.8C255.66 111.25 247.3 100.26 231.99 94.83C209.04 86.68 187.08 91.45 155.52 126.06C123.95 160.66 55.03 150.24 29.1 146.42L0.32 143.56L5 154.33L13.28 163.15C75.2 169.5 108.57 173.49 113.38 175.12C120.59 177.57 169.72 221.11 203.09 201.62C234.31 183.37 251.55 163.76 254.8 142.8L277.73 138.43Z" />
				<g id="&lt;Clip Group&gt;" clip-path="url(#cp3)">
					<g id="&lt;Group&gt;">
						<g id="&lt;Group&gt;">
							<path id="&lt;Path&gt;" class="shp3" d="M286 126.46L257.09 127.8L254.24 147L277.73 152.4L286 126.46Z" />
						</g>
						<g id="&lt;Group&gt;">
							<path id="&lt;Path&gt;" class="shp4" d="M256.24 137.66C258.86 138.07 261.49 138.31 264.13 138.47C269.02 138.76 273.94 138.95 278.83 139.07C280.06 139.1 281.28 139.06 282.51 139.09C282.61 139.1 282.7 139.03 282.71 138.93C282.72 138.82 282.65 138.73 282.55 138.72C280.81 138.46 279.07 138.21 277.31 138.08C270.34 137.55 263.29 137.88 256.37 136.85C256.14 136.82 255.93 136.97 255.9 137.2C255.87 137.42 256.02 137.63 256.24 137.66Z" />
						</g>
						<g id="&lt;Group&gt;">
							<path id="&lt;Path&gt;" class="shp1" d="M-3.08 148.5C-2.64 148.8 -2.47 149.09 -1.96 149.27C-1.43 149.46 -0.83 149.38 -0.26 149.43C8.32 150.16 16.91 152 25.47 152.84C43.66 154.53 61.83 156.96 80.06 158.46C87.37 159.07 94.7 159.54 102.03 159.72C106.92 159.83 111.81 159.73 116.7 159.61C116.91 159.62 117.08 159.46 117.09 159.25C117.09 159.05 116.93 158.88 116.72 158.87L25.73 149.98C18.1 149.35 10.46 147.72 2.81 147.15C1.24 147.04 -0.37 146.57 -1.88 146.98C-2.41 147.12 -2.6 147.4 -3.07 147.69C-3.29 147.68 -3.48 147.86 -3.48 148.09C-3.49 148.31 -3.31 148.5 -3.08 148.5Z" />
						</g>
						<g id="&lt;Group&gt;">
							<path id="&lt;Path&gt;" class="shp1" d="M-2.8 157.04C-2.53 157.32 -2.62 157.43 -2.27 157.6C-1.91 157.77 -1.48 157.69 -1.09 157.71C3.97 157.92 9.02 158.14 14.06 158.79C22.55 159.9 31.04 161.53 39.5 162.29C49.08 163.02 58.65 163.65 68.24 164.2C76.86 164.69 85.48 165.21 94.11 165.64C99.86 165.92 105.62 166.11 111.37 166.41C111.49 166.42 111.59 166.34 111.6 166.22C111.61 166.1 111.53 166 111.41 165.99C104.25 165.14 97.1 164.29 89.93 163.62C73.21 162.05 56.46 160.99 39.75 159.37C29.9 158.57 20.01 156.49 10.1 155.69C6.21 155.37 2.29 155.02 -1.58 155.47C-1.84 155.5 -2.13 155.48 -2.35 155.61C-2.69 155.82 -2.6 155.91 -2.84 156.22C-3.07 156.23 -3.24 156.43 -3.23 156.65C-3.22 156.88 -3.03 157.05 -2.8 157.04Z" />
						</g>
						<g id="&lt;Group&gt;">
							<path id="&lt;Compound Path&gt;" fill-rule="evenodd" class="shp1" d="M212.6 143.62C212.03 144.78 211.19 145.78 210.17 146.55C207.46 148.6 203.46 149.07 200.04 146.47C196.62 143.86 196.69 139.08 199.11 135.42C201.54 131.75 205.93 129.75 209.53 131.86C214.23 134.71 214.92 139.23 213.18 142.65C213.01 142.99 212.82 143.31 212.6 143.62ZM205.24 138.27C204.84 138.08 204.47 138.01 204.26 138.14L204.25 138.16L204.08 138.41C204.07 138.49 204.06 138.59 204.08 138.7C204.13 139.04 204.25 139.34 204.42 139.59C204.52 139.37 204.66 139.18 204.77 138.91C204.92 138.67 205.08 138.46 205.24 138.27Z" />
						</g>
						<g id="&lt;Group&gt;">
							<path id="&lt;Path&gt;" class="shp1" d="M129.17 150.16C129.37 150.33 129.24 150.36 129.5 150.43C129.79 150.51 130.1 150.34 130.4 150.26C133.43 149.46 136.49 147.66 139.31 145.57C140.8 144.46 142.25 143.25 143.49 141.92C144.83 140.49 145.86 138.96 146.88 137.54C147.06 137.35 147.06 137.05 146.87 136.87C146.68 136.68 146.38 136.69 146.2 136.88C145.38 137.46 144.53 137.96 143.66 138.6C142.49 139.47 141.3 140.4 140.11 141.37C138.19 142.92 136.28 144.57 134.27 145.93C132.83 146.91 131.35 147.72 129.93 148.46C129.62 148.62 129.26 148.69 129.04 148.96C128.88 149.16 129 149.14 128.92 149.39C128.7 149.46 128.59 149.68 128.66 149.9C128.73 150.12 128.96 150.23 129.17 150.16Z" />
						</g>
						<g id="&lt;Group&gt;">
							<path id="&lt;Path&gt;" class="shp1" d="M135.15 150.73C135.45 150.79 135.61 150.89 135.91 150.86C137.84 150.65 139.49 149.27 141.08 148.1C142.83 146.82 144.3 145.25 145.88 143.85C145.98 143.77 146.01 143.62 145.93 143.51C145.85 143.4 145.7 143.38 145.59 143.46C144.25 144.18 142.88 144.84 141.56 145.65C139.65 146.83 137.81 148.11 135.83 149.11C135.54 149.25 135.17 149.31 134.96 149.56C134.81 149.74 134.92 149.74 134.86 149.97C134.65 150.05 134.54 150.29 134.62 150.49C134.7 150.7 134.94 150.81 135.15 150.73Z" />
						</g>
						<g id="&lt;Group&gt;">
							<path id="&lt;Path&gt;" class="shp1" d="M142.31 151.35L144.03 150.23C144.21 150.11 144.26 149.87 144.15 149.69C144.03 149.51 143.79 149.46 143.61 149.58L141.85 150.67C141.66 150.8 141.62 151.05 141.74 151.24C141.87 151.42 142.12 151.47 142.31 151.35Z" />
						</g>
					</g>
				</g>
			</g>
			<g id="&lt;Group&gt;">
				<path id="&lt;Path&gt;" class="shp5" d="M220.65 119.26C224.62 115.7 230.73 116.05 234.29 120.03C237.84 124.01 237.5 130.11 233.52 133.67C229.54 137.22 223.43 136.88 219.88 132.9C216.32 128.92 216.67 122.81 220.65 119.26Z" />
				<g id="&lt;Clip Group&gt;" clip-path="url(#cp4)">
					<g id="&lt;Group&gt;">
						<g id="&lt;Group&gt;">
							<path id="&lt;Path&gt;" class="shp3" d="M224.5 120.23C228.39 116.75 234.43 117.16 237.98 121.14C241.54 125.12 241.26 131.16 237.37 134.64C233.48 138.11 227.45 137.7 223.9 133.72C220.34 129.74 220.61 123.7 224.5 120.23Z" />
						</g>
					</g>
				</g>
			</g>
			<g id="&lt;Group&gt;">
				<g id="&lt;Group&gt;">
					<path id="&lt;Path&gt;" class="shp3" d="M144.93 192.38C144.92 193.15 144.53 192.73 144.8 193.41C145.22 194.47 145.79 195.14 145.75 196.14C145.72 196.9 145.42 197.65 145.16 198.41C144.98 198.97 144.84 199.52 144.64 200.05C144.48 200.51 144.28 200.9 144.22 201.35C144.15 201.83 144.36 201.82 144.4 202.28C144.12 202.58 144.13 203.05 144.43 203.33C144.74 203.61 145.21 203.6 145.48 203.29C146.17 203.19 146.48 203.22 147.12 202.82C148.08 202.22 148.62 201.02 149.06 199.91C149.36 199.15 149.49 198.32 149.52 197.53C149.64 194.99 149.21 191.39 146.45 191.23C145.73 191.18 146 191.3 145.32 191.66C145.13 191.56 144.88 191.63 144.77 191.83C144.66 192.03 144.73 192.27 144.93 192.38Z" />
				</g>
				<g id="&lt;Group&gt;">
					<path id="&lt;Path&gt;" class="shp3" d="M152.63 194.96C151.51 195.58 152.29 194.56 151.5 195.53C151.35 195.7 151.32 195.89 151.29 196.11C151.02 198.09 150.62 199.68 149.93 201.43C149.6 202.26 149.53 203.12 149.16 204.03C148.72 204.6 148.82 205.41 149.39 205.85C149.96 206.29 150.78 206.19 151.22 205.62C152.08 205.01 152.83 204.5 153.43 203.74C154.38 202.52 154.76 201.02 155.01 199.55C155.22 198.28 155.53 196.88 155 195.56C154.92 195.37 154.88 195.22 154.7 195.11C153.62 194.42 154.72 195.07 153.44 194.83C153.4 194.61 153.19 194.46 152.97 194.5C152.75 194.53 152.6 194.74 152.63 194.96Z" />
				</g>
				<g id="&lt;Group&gt;">
					<path id="&lt;Path&gt;" class="shp3" d="M157.54 198.76C156.4 199.09 157.4 198.14 156.59 198.99C156.46 199.13 156.48 199.34 156.44 199.52C156.09 201.2 155.2 202.59 154.42 204.1C154.04 204.85 153.84 205.61 153.52 206.38C153.16 206.88 153.27 207.58 153.78 207.93C154.28 208.29 154.98 208.17 155.34 207.67C155.93 207.15 156.54 206.72 157.05 206.11C157.81 205.17 158.3 204.04 158.71 202.92C159.13 201.73 160.05 200.27 159.31 199.18C158.76 198.37 159.29 199.11 158.36 198.76C158.36 198.53 158.17 198.35 157.95 198.35C157.72 198.35 157.54 198.53 157.54 198.76Z" />
				</g>
			</g>
			<g id="&lt;Group&gt;">
				<g id="&lt;Group&gt;">
					<path id="&lt;Path&gt;" class="shp3" d="M172.6 204.62C173 205.28 172.45 205.13 173.04 205.56C173.96 206.24 174.8 206.5 175.3 207.36C175.68 208.02 175.82 208.82 176.01 209.6C176.16 210.17 176.33 210.71 176.45 211.27C176.55 211.74 176.6 212.18 176.78 212.59C176.98 213.03 177.15 212.91 177.43 213.28C177.35 213.68 177.62 214.08 178.02 214.15C178.43 214.23 178.82 213.96 178.89 213.56C179.41 213.11 179.69 212.96 180.02 212.29C180.51 211.27 180.33 209.97 180.11 208.79C179.96 207.98 179.63 207.22 179.23 206.53C177.98 204.32 175.7 201.5 173.27 202.84C172.64 203.18 172.93 203.14 172.55 203.81C172.33 203.82 172.16 204.02 172.17 204.24C172.18 204.47 172.38 204.64 172.6 204.62Z" />
				</g>
				<g id="&lt;Group&gt;">
					<path id="&lt;Path&gt;" class="shp3" d="M180.49 202.7C179.87 203.82 179.99 202.54 179.84 203.79C179.81 204.01 179.88 204.19 179.97 204.39C180.8 206.2 181.31 207.76 181.65 209.61C181.82 210.49 182.22 211.25 182.39 212.22C182.32 212.94 182.84 213.57 183.56 213.64C184.28 213.71 184.91 213.18 184.98 212.47C185.38 211.49 185.75 210.67 185.85 209.7C186 208.16 185.52 206.69 184.95 205.31C184.45 204.13 183.96 202.78 182.81 201.95C182.64 201.83 182.53 201.72 182.32 201.72C181.04 201.72 182.32 201.67 181.11 202.16C180.96 201.99 180.7 201.98 180.53 202.13C180.36 202.27 180.35 202.53 180.49 202.7Z" />
				</g>
				<g id="&lt;Group&gt;">
					<path id="&lt;Path&gt;" class="shp3" d="M186.67 203.3C185.88 204.18 186.22 202.85 185.99 204C185.95 204.18 186.08 204.35 186.15 204.52C186.75 206.13 186.74 207.78 186.88 209.48C186.96 210.31 187.2 211.06 187.33 211.88C187.29 212.5 187.76 213.03 188.38 213.06C189 213.09 189.52 212.62 189.56 212C189.78 211.25 190.07 210.56 190.17 209.77C190.32 208.57 190.13 207.35 189.87 206.19C189.6 204.96 189.6 203.23 188.4 202.71C187.5 202.32 188.34 202.66 187.36 202.86C187.24 202.67 186.99 202.61 186.8 202.73C186.61 202.85 186.55 203.1 186.67 203.3Z" />
				</g>
			</g>
			<g id="&lt;Group&gt;">
				<path id="&lt;Path&gt;" class="shp1" d="M185.68 85.9C185.85 87.82 186.01 89.75 186.32 91.68C187.03 96.11 188.19 100.51 189.49 104.86C190.22 107.33 191 109.8 191.93 112.21C193.35 115.85 195.05 119.34 196.8 122.75C196.9 122.98 197.17 123.08 197.39 122.97C197.62 122.87 197.72 122.6 197.61 122.38C196.19 118.86 194.99 115.21 193.75 111.55C192.93 109.14 192.09 106.73 191.33 104.3C190 100.02 188.95 95.67 187.9 91.36C187.44 89.48 186.92 87.64 186.49 85.77C186.46 85.55 186.25 85.4 186.03 85.43C185.8 85.47 185.65 85.68 185.68 85.9Z" />
			</g>
			<g id="&lt;Group&gt;">
				<path id="&lt;Path&gt;" class="shp1" d="M146.57 132.55C148.56 133.88 150.54 135.25 152.76 136.32C157.79 138.75 163.39 140.25 168.98 141.09C175.46 142.06 182.08 141.99 188.26 140.22C189.82 139.77 191.3 139.16 192.78 138.49C192.93 138.44 193.01 138.27 192.95 138.12C192.9 137.96 192.73 137.88 192.58 137.94C186.57 139.74 180.29 139.85 174.02 139.15C167.55 138.44 161.13 136.68 155.04 134.46C153.71 133.97 152.4 133.46 151.07 133.02C149.68 132.57 148.31 132.26 146.94 131.83C146.74 131.72 146.49 131.8 146.39 132.01C146.29 132.21 146.37 132.45 146.57 132.55Z" />
			</g>
			<g id="&lt;Group&gt;">
				<path id="&lt;Path&gt;" class="shp1" d="M158.64 141.57C159.63 142.18 160.58 142.78 161.61 143.22C163.18 143.9 164.83 144.32 166.46 144.69C170.49 145.61 174.61 145.9 178.93 146.17C179.13 146.19 179.31 146.05 179.32 145.85C179.34 145.66 179.2 145.48 179.01 145.46C176.2 145.08 173.49 144.66 170.84 144.11C168.43 143.6 166.1 142.9 163.72 142.17C162.34 141.74 161.02 141.03 159.53 140.8C159.32 140.76 159.18 140.82 158.98 140.83C158.77 140.74 158.53 140.83 158.44 141.03C158.34 141.24 158.43 141.48 158.64 141.57Z" />
			</g>
			<g id="&lt;Group&gt;">
				<path id="&lt;Path&gt;" class="shp1" d="M161.92 148.3L165.91 149.29C166.21 149.36 166.51 149.17 166.58 148.87C166.65 148.56 166.45 148.26 166.15 148.19L162.06 147.5C161.84 147.46 161.63 147.6 161.59 147.83C161.54 148.05 161.69 148.26 161.92 148.3Z" />
			</g>
		</g>
	</g>
</svg>